<svg width="35" height="34" viewBox="0 0 35 34" fill="none" xmlns="http://www.w3.org/2000/svg">
<mask id="path-1-inside-1_211_2338" fill="white">
<path d="M20.3153 17.0068C20.1477 17.0068 19.9921 16.9607 19.8538 16.8866V16.8886C19.8538 17.1523 19.7513 17.3999 19.5654 17.5854C19.3794 17.7714 19.1319 17.8739 18.8685 17.8739C18.6985 17.8739 18.5409 17.8266 18.4012 17.7505C18.387 17.9918 18.2906 18.2172 18.1186 18.3895C17.9326 18.5754 17.6852 18.6779 17.4216 18.6779C16.898 18.6779 16.4727 18.2663 16.4421 17.7504C16.2801 17.8379 16.0969 17.8839 15.9079 17.8717C15.3928 17.8379 14.9894 17.3929 14.9894 16.8582V12.4266L14.4848 13.3008C14.2926 13.6352 13.9328 13.8428 13.5454 13.8428C13.3567 13.8428 13.1702 13.7933 13.0051 13.6987C12.7994 13.5795 12.6523 13.3881 12.5912 13.1591C12.5297 12.93 12.5615 12.6904 12.6804 12.4851C12.6805 12.4851 14.3315 9.6262 14.4322 9.45059C14.4441 9.42419 14.4783 9.34761 14.5073 9.28234C14.535 9.22002 14.5588 9.15606 14.5816 9.09178C15.0794 7.68622 16.3122 6.81311 17.7989 6.81311C19.7296 6.81311 21.3003 8.51633 21.3003 10.6099L21.3005 16.0214C21.3005 16.2848 21.1982 16.5322 21.0124 16.7184C20.8264 16.9043 20.5789 17.0068 20.3153 17.0068L20.3153 17.0068ZM17.799 7.33666C16.5214 7.33666 15.5032 8.05825 15.075 9.26687C15.0477 9.34361 15.0191 9.42036 14.9858 9.49514C14.8892 9.71178 14.8892 9.71178 14.862 9.74294L14.8584 9.73982C14.7236 9.99417 14.3231 10.6877 13.1337 12.7471C13.0848 12.8316 13.0719 12.9296 13.0968 13.0234C13.1221 13.1173 13.1826 13.1963 13.2664 13.2447C13.5265 13.3941 13.8827 13.2976 14.0309 13.0394L15.0245 11.3191C15.0839 11.2166 15.2039 11.1662 15.3191 11.1974C15.4335 11.228 15.5131 11.3318 15.5131 11.4502V16.8584C15.5131 17.1136 15.7056 17.3338 15.9423 17.3494C16.0787 17.3566 16.206 17.3108 16.3016 17.2154C16.3885 17.1285 16.4364 17.0127 16.4364 16.8889V13.3519C16.4364 13.2072 16.5536 13.09 16.6983 13.09C16.8429 13.09 16.9602 13.2071 16.9602 13.3519L16.96 17.6928C16.96 17.9473 17.1671 18.1545 17.4216 18.1545C17.5453 18.1545 17.6614 18.1066 17.7485 18.0197C17.8354 17.9326 17.8833 17.8165 17.8833 17.6928V13.3519C17.8833 13.2072 18.0004 13.09 18.1452 13.09C18.2898 13.09 18.4071 13.2071 18.4071 13.3519L18.4069 16.8482V16.8889C18.4069 17.1432 18.614 17.3503 18.8687 17.3503C18.9922 17.3503 19.108 17.3023 19.1955 17.215C19.2825 17.1283 19.3303 17.0125 19.3303 16.8887V13.3517C19.3303 13.2071 19.4474 13.0898 19.5922 13.0898C19.7369 13.0898 19.8541 13.2069 19.8541 13.3517L19.8538 16.0215C19.8538 16.2762 20.0609 16.4833 20.3153 16.4833C20.4391 16.4833 20.5549 16.4353 20.6418 16.3485C20.729 16.2613 20.7767 16.1452 20.7767 16.0215L20.7769 10.61C20.7769 8.80529 19.441 7.33671 17.7989 7.33671L17.799 7.33666Z"/>
</mask>
<path d="M20.3153 17.0068C20.1477 17.0068 19.9921 16.9607 19.8538 16.8866V16.8886C19.8538 17.1523 19.7513 17.3999 19.5654 17.5854C19.3794 17.7714 19.1319 17.8739 18.8685 17.8739C18.6985 17.8739 18.5409 17.8266 18.4012 17.7505C18.387 17.9918 18.2906 18.2172 18.1186 18.3895C17.9326 18.5754 17.6852 18.6779 17.4216 18.6779C16.898 18.6779 16.4727 18.2663 16.4421 17.7504C16.2801 17.8379 16.0969 17.8839 15.9079 17.8717C15.3928 17.8379 14.9894 17.3929 14.9894 16.8582V12.4266L14.4848 13.3008C14.2926 13.6352 13.9328 13.8428 13.5454 13.8428C13.3567 13.8428 13.1702 13.7933 13.0051 13.6987C12.7994 13.5795 12.6523 13.3881 12.5912 13.1591C12.5297 12.93 12.5615 12.6904 12.6804 12.4851C12.6805 12.4851 14.3315 9.6262 14.4322 9.45059C14.4441 9.42419 14.4783 9.34761 14.5073 9.28234C14.535 9.22002 14.5588 9.15606 14.5816 9.09178C15.0794 7.68622 16.3122 6.81311 17.7989 6.81311C19.7296 6.81311 21.3003 8.51633 21.3003 10.6099L21.3005 16.0214C21.3005 16.2848 21.1982 16.5322 21.0124 16.7184C20.8264 16.9043 20.5789 17.0068 20.3153 17.0068L20.3153 17.0068ZM17.799 7.33666C16.5214 7.33666 15.5032 8.05825 15.075 9.26687C15.0477 9.34361 15.0191 9.42036 14.9858 9.49514C14.8892 9.71178 14.8892 9.71178 14.862 9.74294L14.8584 9.73982C14.7236 9.99417 14.3231 10.6877 13.1337 12.7471C13.0848 12.8316 13.0719 12.9296 13.0968 13.0234C13.1221 13.1173 13.1826 13.1963 13.2664 13.2447C13.5265 13.3941 13.8827 13.2976 14.0309 13.0394L15.0245 11.3191C15.0839 11.2166 15.2039 11.1662 15.3191 11.1974C15.4335 11.228 15.5131 11.3318 15.5131 11.4502V16.8584C15.5131 17.1136 15.7056 17.3338 15.9423 17.3494C16.0787 17.3566 16.206 17.3108 16.3016 17.2154C16.3885 17.1285 16.4364 17.0127 16.4364 16.8889V13.3519C16.4364 13.2072 16.5536 13.09 16.6983 13.09C16.8429 13.09 16.9602 13.2071 16.9602 13.3519L16.96 17.6928C16.96 17.9473 17.1671 18.1545 17.4216 18.1545C17.5453 18.1545 17.6614 18.1066 17.7485 18.0197C17.8354 17.9326 17.8833 17.8165 17.8833 17.6928V13.3519C17.8833 13.2072 18.0004 13.09 18.1452 13.09C18.2898 13.09 18.4071 13.2071 18.4071 13.3519L18.4069 16.8482V16.8889C18.4069 17.1432 18.614 17.3503 18.8687 17.3503C18.9922 17.3503 19.108 17.3023 19.1955 17.215C19.2825 17.1283 19.3303 17.0125 19.3303 16.8887V13.3517C19.3303 13.2071 19.4474 13.0898 19.5922 13.0898C19.7369 13.0898 19.8541 13.2069 19.8541 13.3517L19.8538 16.0215C19.8538 16.2762 20.0609 16.4833 20.3153 16.4833C20.4391 16.4833 20.5549 16.4353 20.6418 16.3485C20.729 16.2613 20.7767 16.1452 20.7767 16.0215L20.7769 10.61C20.7769 8.80529 19.441 7.33671 17.7989 7.33671L17.799 7.33666Z" fill="#4CAF4F"/>
<path d="M20.3153 17.0068V16.0787H23.5943L20.8017 17.7972L20.3153 17.0068ZM19.8538 16.8866H18.9257V15.3359L20.2924 16.0687L19.8538 16.8866ZM19.5654 17.5854L18.9091 16.9291L18.91 16.9283L19.5654 17.5854ZM18.4012 17.7505L17.4746 17.6964L17.56 16.2357L18.845 16.9355L18.4012 17.7505ZM18.1186 18.3895L18.7752 19.0454L18.7749 19.0457L18.1186 18.3895ZM16.4421 17.7504L16.0008 16.9339L17.2822 16.2413L17.3685 17.6953L16.4421 17.7504ZM15.9079 17.8717L15.8484 18.7979L15.8472 18.7978L15.9079 17.8717ZM14.9894 12.4266L14.1856 11.9626L15.9175 8.96222V12.4266H14.9894ZM14.4848 13.3008L13.6801 12.8383L13.681 12.8369L14.4848 13.3008ZM13.0051 13.6987L12.5437 14.5039L12.5396 14.5016L13.0051 13.6987ZM12.5912 13.1591L13.4875 12.9185L13.4878 12.9196L12.5912 13.1591ZM12.6804 12.4851L11.8772 12.02L12.1453 11.557H12.6804V12.4851ZM14.4322 9.45059L15.2774 9.83385L15.2592 9.87404L15.2373 9.91232L14.4322 9.45059ZM14.5073 9.28234L13.6593 8.90521L13.6593 8.9052L14.5073 9.28234ZM14.5816 9.09178L15.4564 9.40165L15.4563 9.4019L14.5816 9.09178ZM21.3003 10.6099L20.3722 10.6099V10.6099H21.3003ZM21.3005 16.0214L22.2286 16.0214V16.0214H21.3005ZM21.0124 16.7184L21.6692 17.374L21.6686 17.3746L21.0124 16.7184ZM20.3153 17.0068V17.9349H17.0363L19.8288 16.2164L20.3153 17.0068ZM17.799 7.33666V6.40856H19.0294L18.6913 7.59162L17.799 7.33666ZM15.075 9.26687L15.9499 9.57679L15.9491 9.57878L15.075 9.26687ZM14.9858 9.49514L15.8337 9.8726L15.8335 9.87309L14.9858 9.49514ZM14.862 9.74294L15.5609 10.3536L14.9538 11.0485L14.2554 10.4453L14.862 9.74294ZM14.8584 9.73982L14.0384 9.30522L14.5837 8.27626L15.465 9.03742L14.8584 9.73982ZM13.1337 12.7471L13.9374 13.2113L13.937 13.212L13.1337 12.7471ZM13.0968 13.0234L12.2006 13.2647L12.1998 13.2618L13.0968 13.0234ZM13.2664 13.2447L12.8041 14.0495L12.8024 14.0484L13.2664 13.2447ZM14.0309 13.0394L13.226 12.5774L13.2272 12.5752L14.0309 13.0394ZM15.0245 11.3191L14.2209 10.8549L14.2214 10.8539L15.0245 11.3191ZM15.3191 11.1974L15.0789 12.0939L15.0766 12.0932L15.3191 11.1974ZM15.9423 17.3494L15.8932 18.2762L15.8813 18.2755L15.9423 17.3494ZM16.3016 17.2154L16.9578 17.8716L16.9572 17.8722L16.3016 17.2154ZM16.9602 13.3519H17.8882V13.3519L16.9602 13.3519ZM16.96 17.6928H16.0319V17.6928L16.96 17.6928ZM17.7485 18.0197L18.4053 18.6753L18.4041 18.6766L17.7485 18.0197ZM18.4071 13.3519H19.3352V13.3519L18.4071 13.3519ZM18.4069 16.8482H17.4788V16.8481L18.4069 16.8482ZM19.1955 17.215L19.8512 17.8719L19.8506 17.8725L19.1955 17.215ZM19.8541 13.3517H20.7822V13.3518L19.8541 13.3517ZM19.8538 16.0215H18.9257V16.0214L19.8538 16.0215ZM20.6418 16.3485L21.298 17.0048L21.2974 17.0054L20.6418 16.3485ZM20.7767 16.0215H19.8486V16.0215L20.7767 16.0215ZM20.7769 10.61H21.705V10.61L20.7769 10.61ZM17.7989 7.33671V8.2648H16.5685L16.9066 7.08174L17.7989 7.33671ZM20.3153 17.9349C19.9735 17.9349 19.6684 17.8403 19.4152 17.7045L20.2924 16.0687C20.3044 16.0751 20.312 16.0776 20.315 16.0784C20.3176 16.0791 20.3173 16.0787 20.3153 16.0787V17.9349ZM20.7819 16.8866V16.8886H18.9257V16.8866H20.7819ZM20.7819 16.8886C20.7819 17.3976 20.5821 17.8821 20.2207 18.2425L18.91 16.9283C18.9166 16.9216 18.9199 16.916 18.9218 16.9113C18.9237 16.9067 18.9257 16.8995 18.9257 16.8886H20.7819ZM20.2216 18.2416C19.8614 18.6018 19.3779 18.8019 18.8685 18.8019V16.9458C18.8792 16.9458 18.8862 16.9438 18.8909 16.9419C18.8957 16.9399 18.9018 16.9364 18.9091 16.9291L20.2216 18.2416ZM18.8685 18.8019C18.5223 18.8019 18.2134 18.7051 17.9573 18.5656L18.845 16.9355C18.8571 16.942 18.8648 16.9445 18.8678 16.9454C18.8704 16.9461 18.8702 16.9458 18.8685 16.9458V18.8019ZM19.3277 17.8047C19.301 18.2615 19.1156 18.7046 18.7752 19.0454L17.462 17.7335C17.4654 17.7301 17.4674 17.727 17.4691 17.7232C17.4709 17.719 17.4738 17.7105 17.4746 17.6964L19.3277 17.8047ZM18.7749 19.0457C18.4146 19.4059 17.931 19.606 17.4216 19.606V17.7498C17.4324 17.7498 17.4395 17.7479 17.4442 17.7459C17.449 17.7439 17.4551 17.7404 17.4623 17.7332L18.7749 19.0457ZM17.4216 19.606C16.397 19.606 15.5748 18.8018 15.5156 17.8054L17.3685 17.6953C17.3695 17.7111 17.3759 17.725 17.3874 17.7359C17.3929 17.7412 17.3986 17.7446 17.4035 17.7466C17.4078 17.7484 17.4133 17.7498 17.4216 17.7498V19.606ZM16.8834 18.5668C16.5836 18.7289 16.2281 18.8223 15.8484 18.7979L15.9674 16.9455C15.9675 16.9455 15.9694 16.9457 15.9743 16.9446C15.9796 16.9434 15.9886 16.9405 16.0008 16.9339L16.8834 18.5668ZM15.8472 18.7978C14.8167 18.7302 14.0613 17.8539 14.0613 16.8582H15.9175C15.9175 16.8896 15.9289 16.9138 15.9432 16.9295C15.9571 16.9449 15.9666 16.9455 15.9687 16.9456L15.8472 18.7978ZM14.0613 16.8582V12.4266H15.9175V16.8582H14.0613ZM15.7932 12.8906L15.2886 13.7648L13.681 12.8369L14.1856 11.9626L15.7932 12.8906ZM15.2894 13.7633C14.9308 14.3873 14.2633 14.7709 13.5454 14.7709V12.9147C13.6023 12.9147 13.6544 12.8832 13.6801 12.8383L15.2894 13.7633ZM13.5454 14.7709C13.1945 14.7709 12.849 14.6789 12.5437 14.5039L13.4665 12.8934C13.4915 12.9077 13.5189 12.9147 13.5454 12.9147V14.7709ZM12.5396 14.5016C12.1229 14.26 11.8196 13.8669 11.6945 13.3987L13.4878 12.9196C13.487 12.9164 13.4847 12.9108 13.4802 12.905C13.4757 12.8992 13.4716 12.8964 13.4706 12.8958L12.5396 14.5016ZM11.6948 13.3997C11.5692 12.9319 11.635 12.4384 11.8772 12.02L13.4835 12.9502C13.4849 12.9479 13.4872 12.9426 13.4882 12.9351C13.4892 12.9276 13.4883 12.9216 13.4875 12.9185L11.6948 13.3997ZM12.6804 11.557C12.2251 11.6763 11.8844 12.0079 11.8818 12.0122C11.881 12.0136 11.8797 12.0158 11.8793 12.0165C11.8791 12.0169 11.8787 12.0175 11.8785 12.0178C11.8785 12.0179 11.8783 12.0182 11.8782 12.0183C11.8781 12.0185 11.8782 12.0184 11.8785 12.0178C11.8791 12.0167 11.8802 12.0149 11.8817 12.0122C11.8848 12.007 11.8894 11.9991 11.8954 11.9886C11.9075 11.9677 11.9253 11.9369 11.9479 11.8977C11.9933 11.8192 12.0581 11.7069 12.1363 11.5715C12.2927 11.3008 12.5022 10.938 12.7148 10.5696C13.1408 9.83178 13.5776 9.07512 13.6271 8.98886L15.2373 9.91232C15.186 10.0017 14.747 10.7623 14.3223 11.4978C14.1096 11.8661 13.9001 12.229 13.7437 12.4998C13.6655 12.6352 13.6006 12.7476 13.5552 12.8261C13.5325 12.8654 13.5147 12.8963 13.5025 12.9173C13.4965 12.9278 13.4918 12.936 13.4885 12.9415C13.487 12.9443 13.4856 12.9466 13.4847 12.9482C13.4842 12.949 13.4837 12.95 13.4831 12.9509C13.4829 12.9512 13.4823 12.9522 13.4816 12.9535C13.4812 12.9542 13.4799 12.9565 13.479 12.9579C13.4764 12.9622 13.1356 13.2939 12.6804 13.4132V11.557ZM13.5869 9.06733C13.5971 9.0448 13.6295 8.97216 13.6593 8.90521L15.3553 9.65946C15.327 9.72306 15.2912 9.80358 15.2774 9.83385L13.5869 9.06733ZM13.6593 8.9052C13.6722 8.87619 13.6864 8.83913 13.7068 8.78165L15.4563 9.4019C15.4311 9.47299 15.3978 9.56384 15.3553 9.65947L13.6593 8.9052ZM13.7067 8.7819C14.3353 7.00729 15.9175 5.88502 17.7989 5.88502V7.74121C16.7069 7.74121 15.8235 8.36515 15.4564 9.40165L13.7067 8.7819ZM17.7989 5.88502C20.3115 5.88502 22.2284 8.07596 22.2284 10.6099H20.3722C20.3722 8.9567 19.1477 7.74121 17.7989 7.74121V5.88502ZM22.2284 10.6099L22.2286 16.0214L20.3724 16.0214L20.3722 10.6099L22.2284 10.6099ZM22.2286 16.0214C22.2286 16.5303 22.0289 17.0137 21.6692 17.374L20.3555 16.0627C20.3628 16.0554 20.3664 16.0491 20.3684 16.0442C20.3704 16.0394 20.3724 16.0322 20.3724 16.0214H22.2286ZM21.6686 17.3746C21.3084 17.7349 20.8247 17.9349 20.3153 17.9349V16.0787C20.3262 16.0787 20.3333 16.0768 20.338 16.0748C20.3428 16.0728 20.3489 16.0693 20.3561 16.0621L21.6686 17.3746ZM19.8288 16.2164L19.8289 16.2164L20.8017 17.7972L20.8017 17.7972L19.8288 16.2164ZM17.799 8.26475C16.9166 8.26475 16.2474 8.73679 15.9499 9.57679L14.2002 8.95695C14.759 7.3797 16.1263 6.40856 17.799 6.40856V8.26475ZM15.9491 9.57878C15.9199 9.66088 15.8818 9.76457 15.8337 9.8726L14.138 9.11769C14.1564 9.07616 14.1755 9.02635 14.2009 8.95495L15.9491 9.57878ZM15.8335 9.87309C15.791 9.96841 15.7554 10.0489 15.7281 10.1034C15.7112 10.1373 15.6838 10.1894 15.6441 10.2472C15.6039 10.3057 15.5641 10.3499 15.5609 10.3536L14.1631 9.13228C14.1653 9.12979 14.1646 9.1306 14.1635 9.13188C14.1621 9.13352 14.1585 9.13773 14.1537 9.1435C14.1488 9.14947 14.1426 9.15719 14.1357 9.16637C14.1287 9.17563 14.1215 9.18548 14.1144 9.19587C14.0998 9.21703 14.0887 9.23556 14.0807 9.24957C14.0733 9.26266 14.0687 9.27171 14.0677 9.27375C14.0666 9.27586 14.0673 9.27462 14.0704 9.26787C14.0735 9.26132 14.0778 9.2519 14.084 9.23819C14.0902 9.22459 14.0976 9.20817 14.1066 9.18788C14.1157 9.16762 14.126 9.14441 14.1382 9.1172L15.8335 9.87309ZM14.2554 10.4453L14.2518 10.4422L15.465 9.03742L15.4686 9.04053L14.2554 10.4453ZM15.6785 10.1744C15.5332 10.4485 15.1185 11.1662 13.9374 13.2113L12.33 12.283C13.5278 10.2092 13.914 9.53984 14.0384 9.30522L15.6785 10.1744ZM13.937 13.212C14.0113 13.0836 14.032 12.9288 13.9938 12.7851L12.1998 13.2618C12.1118 12.9305 12.1584 12.5795 12.3304 12.2823L13.937 13.212ZM13.993 12.7822C13.9548 12.6403 13.8609 12.5163 13.7304 12.4409L12.8024 14.0484C12.5042 13.8763 12.2893 13.5942 12.2006 13.2647L13.993 12.7822ZM13.7286 12.4399C13.623 12.3792 13.5202 12.3796 13.4493 12.3987C13.3786 12.4177 13.288 12.4693 13.226 12.5774L14.8358 13.5013C14.4314 14.2061 13.507 14.4532 12.8041 14.0494L13.7286 12.4399ZM13.2272 12.5752L14.2209 10.8549L15.8282 11.7832L14.8346 13.5035L13.2272 12.5752ZM14.2214 10.8539C14.4895 10.3911 15.0367 10.1595 15.5615 10.3015L15.0766 12.0932C15.3712 12.173 15.6783 12.042 15.8276 11.7842L14.2214 10.8539ZM15.5592 10.3009C16.0799 10.4404 16.4412 10.9122 16.4412 11.4502H14.585C14.585 11.7515 14.7872 12.0157 15.0789 12.0939L15.5592 10.3009ZM16.4412 11.4502V16.8584H14.585V11.4502H16.4412ZM16.4412 16.8584C16.4412 16.7526 16.402 16.6565 16.3377 16.5829C16.2735 16.5094 16.1601 16.4336 16.0032 16.4233L15.8813 18.2755C15.1 18.224 14.585 17.5435 14.585 16.8584H16.4412ZM15.9913 16.4226C15.8816 16.4168 15.7477 16.4569 15.6459 16.5585L16.9572 17.8722C16.6642 18.1647 16.2758 18.2964 15.8932 18.2762L15.9913 16.4226ZM15.6453 16.5591C15.5572 16.6472 15.5083 16.7679 15.5083 16.8889H17.3645C17.3645 17.2575 17.2197 17.6097 16.9578 17.8716L15.6453 16.5591ZM15.5083 16.8889V13.3519H17.3645V16.8889H15.5083ZM15.5083 13.3519C15.5083 12.6947 16.041 12.1619 16.6983 12.1619V14.0181C17.0662 14.0181 17.3645 13.7198 17.3645 13.3519H15.5083ZM16.6983 12.1619C17.3551 12.1619 17.8882 12.6941 17.8882 13.3519H16.0321C16.0321 13.72 16.3307 14.0181 16.6983 14.0181V12.1619ZM17.8882 13.3519L17.8881 17.6929L16.0319 17.6928L16.0321 13.3518L17.8882 13.3519ZM17.8881 17.6928C17.8881 17.4348 17.6797 17.2264 17.4216 17.2264V19.0826C16.6545 19.0826 16.0319 18.4599 16.0319 17.6928H17.8881ZM17.4216 17.2264C17.3008 17.2264 17.1807 17.275 17.0928 17.3628L18.4041 18.6766C18.142 18.9381 17.7897 19.0826 17.4216 19.0826V17.2264ZM17.0916 17.364C17.0038 17.4519 16.9552 17.572 16.9552 17.6928H18.8114C18.8114 18.0609 18.6669 18.4132 18.4053 18.6753L17.0916 17.364ZM16.9552 17.6928V13.3519H18.8114V17.6928H16.9552ZM16.9552 13.3519C16.9552 12.6951 17.4874 12.1619 18.1452 12.1619V14.0181C18.5133 14.0181 18.8114 13.7194 18.8114 13.3519H16.9552ZM18.1452 12.1619C18.802 12.1619 19.3352 12.6941 19.3352 13.3519H17.479C17.479 13.72 17.7776 14.0181 18.1452 14.0181V12.1619ZM19.3352 13.3519L19.335 16.8482L17.4788 16.8481L17.479 13.3518L19.3352 13.3519ZM19.335 16.8482V16.8889H17.4788V16.8482H19.335ZM19.335 16.8889C19.335 16.6302 19.1261 16.4222 18.8687 16.4222V18.2784C18.1019 18.2784 17.4788 17.6562 17.4788 16.8889H19.335ZM18.8687 16.4222C18.7454 16.4222 18.626 16.4724 18.5405 16.5575L19.8506 17.8725C19.5899 18.1322 19.239 18.2784 18.8687 18.2784V16.4222ZM18.5399 16.5582C18.4511 16.6468 18.4022 16.7678 18.4022 16.8887H20.2584C20.2584 17.2572 20.1138 17.6098 19.8512 17.8719L18.5399 16.5582ZM18.4022 16.8887V13.3517H20.2584V16.8887H18.4022ZM18.4022 13.3517C18.4022 12.6949 18.9345 12.1617 19.5922 12.1617V14.0179C19.9604 14.0179 20.2584 13.7193 20.2584 13.3517H18.4022ZM19.5922 12.1617C20.2491 12.1617 20.7822 12.6939 20.7822 13.3517H18.926C18.926 13.7198 19.2247 14.0179 19.5922 14.0179V12.1617ZM20.7822 13.3518L20.7819 16.0216L18.9257 16.0214L18.926 13.3516L20.7822 13.3518ZM20.7819 16.0215C20.7819 15.7641 20.5739 15.5552 20.3153 15.5552V17.4114C19.5479 17.4114 18.9257 16.7883 18.9257 16.0215H20.7819ZM20.3153 15.5552C20.1935 15.5552 20.0734 15.6045 19.9861 15.6916L21.2974 17.0054C21.0363 17.266 20.6846 17.4114 20.3153 17.4114V15.5552ZM19.9855 15.6922C19.8971 15.7806 19.8486 15.9012 19.8486 16.0215H21.7048C21.7048 16.3891 21.5609 16.7419 21.298 17.0048L19.9855 15.6922ZM19.8486 16.0215L19.8488 10.61L21.705 10.61L21.7048 16.0215L19.8486 16.0215ZM19.8488 10.61C19.8488 9.23328 18.8478 8.2648 17.7989 8.2648V6.40862C20.0343 6.40862 21.705 8.3773 21.705 10.61H19.8488ZM16.9066 7.08174L16.9066 7.08169L18.6913 7.59162L18.6913 7.59168L16.9066 7.08174Z" fill="#4CAF4F" mask="url(#path-1-inside-1_211_2338)"/>
<path d="M8.93506 18.7949L8.8833 18.7675C8.87103 18.7896 8.83658 18.8515 8.78564 18.9433C8.80373 18.9523 8.82206 18.9599 8.84033 18.9667C8.87148 18.9106 8.90271 18.8531 8.93506 18.7949Z" fill="#4CAF4F" stroke="#4CAF4F" stroke-width="0.928093"/>
<mask id="path-4-inside-2_211_2338" fill="white">
<path d="M28.1853 26.0648C27.702 26.8708 26.9071 27.4225 25.947 27.6187C24.9953 27.8127 23.9945 27.6338 23.1283 27.1144L18.4876 24.3305C18.2617 24.195 18.102 23.9798 18.0381 23.7243C17.9746 23.4693 18.0143 23.2045 18.1496 22.9788C18.234 22.8378 18.3524 22.7266 18.4897 22.6444L18.4884 22.6436C18.2626 22.5082 18.1028 22.293 18.0392 22.0378C17.9753 21.7826 18.0149 21.5176 18.1504 21.2917C18.2376 21.1465 18.3572 21.033 18.4936 20.9525C18.2955 20.8162 18.1529 20.6183 18.0941 20.3835C18.0302 20.1281 18.0699 19.8633 18.2053 19.6376C18.3406 19.4118 18.556 19.2522 18.8111 19.1884C18.8908 19.1684 18.9717 19.1586 19.0517 19.1586C19.2088 19.1588 19.363 19.1986 19.5047 19.2727C19.5133 19.0892 19.568 18.909 19.6752 18.7543C19.9692 18.3301 20.5583 18.2127 21.0172 18.488L24.8174 20.7675L24.3275 19.8852C24.1396 19.5484 24.1465 19.1328 24.3457 18.8006C24.4428 18.6389 24.5816 18.5046 24.7474 18.4116C24.8836 18.3361 25.0312 18.3004 25.1768 18.3004C25.4896 18.3006 25.7933 18.4655 25.955 18.7576C26.5185 19.7729 27.5818 21.6877 27.6565 21.8213C27.6725 21.8445 27.7205 21.9133 27.7617 21.9719C27.8009 22.0275 27.8432 22.0806 27.887 22.1334C28.8358 23.2837 28.9503 24.7899 28.1853 26.0648L28.1853 26.0648ZM27.4829 22.4672C27.4308 22.404 27.3796 22.3396 27.333 22.2732C27.1914 22.0721 27.1877 22.0669 27.1771 22.0142C27.0115 21.7402 26.6074 21.0127 25.4967 19.0117C25.3993 18.836 25.1779 18.7719 25.0016 18.8693C24.9148 18.9179 24.8451 18.9856 24.7943 19.0704C24.6913 19.2421 24.6874 19.4566 24.7846 19.6308L25.7486 21.3676C25.8061 21.4712 25.7869 21.6005 25.7018 21.6828C25.6169 21.7653 25.487 21.7797 25.385 21.719L20.7476 18.937C20.529 18.806 20.2409 18.8573 20.1058 19.0525C20.0281 19.1647 20.0033 19.2985 20.0358 19.4292C20.0656 19.5486 20.1406 19.6493 20.2467 19.7129C20.247 19.7131 20.2471 19.7134 20.2475 19.7136L23.2795 21.5326C23.4035 21.607 23.4437 21.7677 23.3692 21.8919C23.2948 22.0157 23.1342 22.0562 23.0099 21.9816L19.2875 19.7485C19.1819 19.6852 19.0576 19.6665 18.9382 19.6965C18.8185 19.7264 18.7178 19.8011 18.6543 19.9072C18.5907 20.013 18.5723 20.1372 18.6018 20.2565C18.6317 20.3759 18.7066 20.4768 18.8125 20.5404L19.5369 20.9748L22.5348 22.7735C22.6588 22.848 22.699 23.0087 22.6246 23.1328C22.5501 23.2566 22.3895 23.297 22.2652 23.2225L19.2325 21.403C19.0144 21.2718 18.7304 21.343 18.5992 21.5614C18.5356 21.6674 18.5172 21.7915 18.5467 21.9109C18.5766 22.0303 18.6515 22.131 18.7576 22.1948L19.5012 22.6408L21.7903 24.0143C21.9143 24.0887 21.9545 24.2495 21.88 24.3736C21.8056 24.4974 21.645 24.5381 21.5207 24.4633L19.2316 23.0899C19.1259 23.0266 19.0021 23.0079 18.8821 23.0379C18.7627 23.0677 18.6617 23.1425 18.5982 23.2483C18.5348 23.3542 18.5162 23.4785 18.5457 23.5977C18.5756 23.7171 18.6505 23.8178 18.7566 23.8816L23.3973 26.6655C24.1504 27.1173 25.0189 27.2738 25.8418 27.1058C26.6562 26.9395 27.3289 26.4743 27.7359 25.7957C28.3937 24.6999 28.2991 23.4555 27.4832 22.4671L27.4829 22.4672Z"/>
</mask>
<path d="M28.1853 26.0648C27.702 26.8708 26.9071 27.4225 25.947 27.6187C24.9953 27.8127 23.9945 27.6338 23.1283 27.1144L18.4876 24.3305C18.2617 24.195 18.102 23.9798 18.0381 23.7243C17.9746 23.4693 18.0143 23.2045 18.1496 22.9788C18.234 22.8378 18.3524 22.7266 18.4897 22.6444L18.4884 22.6436C18.2626 22.5082 18.1028 22.293 18.0392 22.0378C17.9753 21.7826 18.0149 21.5176 18.1504 21.2917C18.2376 21.1465 18.3572 21.033 18.4936 20.9525C18.2955 20.8162 18.1529 20.6183 18.0941 20.3835C18.0302 20.1281 18.0699 19.8633 18.2053 19.6376C18.3406 19.4118 18.556 19.2522 18.8111 19.1884C18.8908 19.1684 18.9717 19.1586 19.0517 19.1586C19.2088 19.1588 19.363 19.1986 19.5047 19.2727C19.5133 19.0892 19.568 18.909 19.6752 18.7543C19.9692 18.3301 20.5583 18.2127 21.0172 18.488L24.8174 20.7675L24.3275 19.8852C24.1396 19.5484 24.1465 19.1328 24.3457 18.8006C24.4428 18.6389 24.5816 18.5046 24.7474 18.4116C24.8836 18.3361 25.0312 18.3004 25.1768 18.3004C25.4896 18.3006 25.7933 18.4655 25.955 18.7576C26.5185 19.7729 27.5818 21.6877 27.6565 21.8213C27.6725 21.8445 27.7205 21.9133 27.7617 21.9719C27.8009 22.0275 27.8432 22.0806 27.887 22.1334C28.8358 23.2837 28.9503 24.7899 28.1853 26.0648L28.1853 26.0648ZM27.4829 22.4672C27.4308 22.404 27.3796 22.3396 27.333 22.2732C27.1914 22.0721 27.1877 22.0669 27.1771 22.0142C27.0115 21.7402 26.6074 21.0127 25.4967 19.0117C25.3993 18.836 25.1779 18.7719 25.0016 18.8693C24.9148 18.9179 24.8451 18.9856 24.7943 19.0704C24.6913 19.2421 24.6874 19.4566 24.7846 19.6308L25.7486 21.3676C25.8061 21.4712 25.7869 21.6005 25.7018 21.6828C25.6169 21.7653 25.487 21.7797 25.385 21.719L20.7476 18.937C20.529 18.806 20.2409 18.8573 20.1058 19.0525C20.0281 19.1647 20.0033 19.2985 20.0358 19.4292C20.0656 19.5486 20.1406 19.6493 20.2467 19.7129C20.247 19.7131 20.2471 19.7134 20.2475 19.7136L23.2795 21.5326C23.4035 21.607 23.4437 21.7677 23.3692 21.8919C23.2948 22.0157 23.1342 22.0562 23.0099 21.9816L19.2875 19.7485C19.1819 19.6852 19.0576 19.6665 18.9382 19.6965C18.8185 19.7264 18.7178 19.8011 18.6543 19.9072C18.5907 20.013 18.5723 20.1372 18.6018 20.2565C18.6317 20.3759 18.7066 20.4768 18.8125 20.5404L19.5369 20.9748L22.5348 22.7735C22.6588 22.848 22.699 23.0087 22.6246 23.1328C22.5501 23.2566 22.3895 23.297 22.2652 23.2225L19.2325 21.403C19.0144 21.2718 18.7304 21.343 18.5992 21.5614C18.5356 21.6674 18.5172 21.7915 18.5467 21.9109C18.5766 22.0303 18.6515 22.131 18.7576 22.1948L19.5012 22.6408L21.7903 24.0143C21.9143 24.0887 21.9545 24.2495 21.88 24.3736C21.8056 24.4974 21.645 24.5381 21.5207 24.4633L19.2316 23.0899C19.1259 23.0266 19.0021 23.0079 18.8821 23.0379C18.7627 23.0677 18.6617 23.1425 18.5982 23.2483C18.5348 23.3542 18.5162 23.4785 18.5457 23.5977C18.5756 23.7171 18.6505 23.8178 18.7566 23.8816L23.3973 26.6655C24.1504 27.1173 25.0189 27.2738 25.8418 27.1058C26.6562 26.9395 27.3289 26.4743 27.7359 25.7957C28.3937 24.6999 28.2991 23.4555 27.4832 22.4671L27.4829 22.4672Z" fill="#4CAF4F"/>
<path d="M28.1853 26.0648L27.8858 25.1864L30.2845 24.3687L28.9813 26.5421L28.1853 26.0648ZM25.947 27.6187L26.1327 28.528L26.1324 28.5281L25.947 27.6187ZM23.1283 27.1144L22.651 27.9104L22.6508 27.9103L23.1283 27.1144ZM18.4876 24.3305L18.965 23.5346L18.965 23.5346L18.4876 24.3305ZM18.0381 23.7243L17.1377 23.9497L17.1374 23.9485L18.0381 23.7243ZM18.1496 22.9788L18.9458 23.4556L18.9456 23.4561L18.1496 22.9788ZM18.4897 22.6444L18.9816 21.8574L20.2682 22.6616L18.9663 23.4408L18.4897 22.6444ZM18.4884 22.6436L18.9658 21.8477L18.9731 21.8521L18.9803 21.8566L18.4884 22.6436ZM18.0392 22.0378L18.9395 21.8122L18.9397 21.8133L18.0392 22.0378ZM18.1504 21.2917L17.3544 20.8145L17.355 20.8135L18.1504 21.2917ZM18.4936 20.9525L19.0196 20.1879L20.2183 21.0124L18.9653 21.7518L18.4936 20.9525ZM18.0941 20.3835L18.9944 20.158L18.9945 20.1584L18.0941 20.3835ZM18.2053 19.6376L19.0015 20.1146L19.0011 20.1153L18.2053 19.6376ZM18.8111 19.1884L19.0371 20.0886L19.0362 20.0888L18.8111 19.1884ZM19.0517 19.1586V18.2305L19.0527 18.2305L19.0517 19.1586ZM19.5047 19.2727L20.4317 19.3166L20.3629 20.7692L19.0744 20.0951L19.5047 19.2727ZM19.6752 18.7543L20.438 19.283L20.4379 19.2832L19.6752 18.7543ZM21.0172 18.488L20.5398 19.2839L20.5397 19.2838L21.0172 18.488ZM24.8174 20.7675L25.6288 20.317L27.3098 23.3448L24.34 21.5634L24.8174 20.7675ZM24.3275 19.8852L25.138 19.433L25.139 19.4347L24.3275 19.8852ZM24.3457 18.8006L23.5498 18.3232L23.55 18.3228L24.3457 18.8006ZM24.7474 18.4116L24.2934 17.6021L24.2979 17.5996L24.7474 18.4116ZM25.1768 18.3004V17.3723L25.1773 17.3723L25.1768 18.3004ZM25.955 18.7576L25.1435 19.208L25.143 19.2071L25.955 18.7576ZM27.6565 21.8213L26.8919 22.3474L26.8676 22.312L26.8466 22.2744L27.6565 21.8213ZM27.7617 21.9719L27.0031 22.5067L27.0025 22.5057L27.7617 21.9719ZM27.887 22.1334L28.6014 21.541L28.6029 21.5428L27.887 22.1334ZM28.1853 26.0648L28.4847 26.9433L26.0849 27.7614L27.3894 25.5873L28.1853 26.0648ZM27.4829 22.4672L27.5749 23.3907L27.0825 23.4397L26.7674 23.0582L27.4829 22.4672ZM27.333 22.2732L28.0917 21.7385L28.0929 21.7403L27.333 22.2732ZM27.1771 22.0142L27.9714 21.5341L28.0547 21.6721L28.0867 21.83L27.1771 22.0142ZM25.4967 19.0117L24.6852 19.4621L24.685 19.4618L25.4967 19.0117ZM25.0016 18.8693L24.5484 18.0594L24.5527 18.057L25.0016 18.8693ZM24.7943 19.0704L25.5903 19.5476L25.5902 19.5478L24.7943 19.0704ZM24.7846 19.6308L25.595 19.1783L25.5961 19.1804L24.7846 19.6308ZM25.7486 21.3676L24.9372 21.8182L24.9371 21.818L25.7486 21.3676ZM25.7018 21.6828L25.0553 21.017L25.0566 21.0157L25.7018 21.6828ZM25.385 21.719L24.9105 22.5167L24.9075 22.5149L25.385 21.719ZM20.7476 18.937L21.2248 18.141L21.2251 18.1412L20.7476 18.937ZM20.1058 19.0525L20.8688 19.5809L20.8686 19.5811L20.1058 19.0525ZM20.0358 19.4292L19.1354 19.6543L19.135 19.6529L20.0358 19.4292ZM20.2467 19.7129L19.8315 20.543L19.7998 20.5271L19.7693 20.5088L20.2467 19.7129ZM20.2475 19.7136L20.6626 18.8835L20.6944 18.8994L20.7249 18.9177L20.2475 19.7136ZM23.2795 21.5326L23.757 20.7367L23.7573 20.7369L23.2795 21.5326ZM23.3692 21.8919L24.1652 22.3692L24.1646 22.3701L23.3692 21.8919ZM23.0099 21.9816L23.4874 21.1857L23.4876 21.1858L23.0099 21.9816ZM19.2875 19.7485L19.7646 18.9524L19.7649 18.9526L19.2875 19.7485ZM18.9382 19.6965L19.1644 20.5966L19.1627 20.597L18.9382 19.6965ZM18.6543 19.9072L19.4508 20.3837L19.4496 20.3856L18.6543 19.9072ZM18.6018 20.2565L17.7014 20.4816L17.7009 20.4793L18.6018 20.2565ZM18.8125 20.5404L18.3352 21.3363L18.3347 21.336L18.8125 20.5404ZM19.5369 20.9748L20.0143 20.1789L20.0144 20.179L19.5369 20.9748ZM22.5348 22.7735L23.0123 21.9777L23.0127 21.9779L22.5348 22.7735ZM22.6246 23.1328L23.4205 23.6102L23.4199 23.6111L22.6246 23.1328ZM22.2652 23.2225L21.7883 24.0187L21.7878 24.0184L22.2652 23.2225ZM19.2325 21.403L18.7551 22.1989L18.7542 22.1983L19.2325 21.403ZM18.5992 21.5614L19.3948 22.0393L19.3948 22.0393L18.5992 21.5614ZM18.5467 21.9109L17.6463 22.136L17.6458 22.1337L18.5467 21.9109ZM18.7576 22.1948L18.2802 22.9906L18.2794 22.9902L18.7576 22.1948ZM19.5012 22.6408L19.9786 21.845L19.9786 21.845L19.5012 22.6408ZM21.7903 24.0143L22.2678 23.2184L22.2681 23.2186L21.7903 24.0143ZM21.88 24.3736L22.6759 24.851L22.6754 24.8519L21.88 24.3736ZM21.5207 24.4633L21.9982 23.6675L21.9992 23.668L21.5207 24.4633ZM19.2316 23.0899L19.7087 22.2938L19.709 22.294L19.2316 23.0899ZM18.8821 23.0379L18.657 22.1375L18.657 22.1375L18.8821 23.0379ZM18.5982 23.2483L17.8021 22.7713L17.8024 22.7708L18.5982 23.2483ZM18.5457 23.5977L17.6454 23.8228L17.6449 23.8208L18.5457 23.5977ZM18.7566 23.8816L18.2792 24.6775L18.2784 24.677L18.7566 23.8816ZM23.3973 26.6655L23.8748 25.8697L23.8748 25.8697L23.3973 26.6655ZM25.8418 27.1058L26.0275 28.0152L26.0274 28.0152L25.8418 27.1058ZM27.7359 25.7957L26.94 25.3183L26.9402 25.318L27.7359 25.7957ZM27.4832 22.4671L27.3913 21.5436L27.8838 21.4946L28.199 21.8763L27.4832 22.4671ZM28.9813 26.5421C28.3577 27.582 27.3355 28.2823 26.1327 28.528L25.7612 26.7094C26.4788 26.5628 27.0462 26.1597 27.3893 25.5876L28.9813 26.5421ZM26.1324 28.5281C24.9438 28.7704 23.7075 28.5439 22.651 27.9104L23.6055 26.3184C24.2814 26.7237 25.0469 26.855 25.7616 26.7093L26.1324 28.5281ZM22.6508 27.9103L18.0101 25.1263L18.965 23.5346L23.6057 26.3185L22.6508 27.9103ZM18.0101 25.1263C17.5737 24.8645 17.2616 24.4444 17.1377 23.9497L18.9384 23.499C18.9409 23.5091 18.9444 23.5153 18.9475 23.5195C18.9506 23.5237 18.9557 23.529 18.965 23.5346L18.0101 25.1263ZM17.1374 23.9485C17.0145 23.4544 17.0923 22.9374 17.3536 22.5016L18.9456 23.4561C18.94 23.4653 18.9379 23.4726 18.9371 23.4779C18.9364 23.4833 18.9362 23.4904 18.9387 23.5002L17.1374 23.9485ZM17.3533 22.502C17.5254 22.2146 17.7606 21.9992 18.013 21.8481L18.9663 23.4408C18.955 23.4475 18.949 23.4528 18.9466 23.4551C18.9444 23.4573 18.9448 23.4574 18.9458 23.4556L17.3533 22.502ZM17.9978 23.4315L17.9965 23.4306L18.9803 21.8566L18.9816 21.8574L17.9978 23.4315ZM18.011 23.4395C17.5747 23.1778 17.2621 22.7576 17.1387 22.2623L18.9397 21.8133C18.9421 21.8227 18.9454 21.8286 18.9484 21.8327C18.9514 21.8368 18.9565 21.8422 18.9658 21.8477L18.011 23.4395ZM17.139 22.2634C17.0149 21.7683 17.0929 21.2506 17.3544 20.8145L18.9464 21.7689C18.9407 21.7783 18.9387 21.7856 18.938 21.7907C18.9372 21.7958 18.9371 21.8027 18.9395 21.8122L17.139 22.2634ZM17.355 20.8135C17.5263 20.5285 17.7604 20.3076 18.022 20.1532L18.9653 21.7518C18.9593 21.7554 18.9552 21.7587 18.9525 21.7614C18.9499 21.7639 18.9478 21.7665 18.9458 21.7698L17.355 20.8135ZM17.9676 21.7172C17.5927 21.4593 17.3101 21.0739 17.1938 20.6085L18.9945 20.1584C18.9956 20.1628 18.9971 20.1659 18.9995 20.1693C19.0021 20.173 19.0079 20.1798 19.0196 20.1879L17.9676 21.7172ZM17.1939 20.609C17.0699 20.1139 17.1477 19.5962 17.4096 19.1599L19.0011 20.1153C18.9956 20.1245 18.9936 20.1314 18.9929 20.1364C18.9921 20.1414 18.992 20.1482 18.9944 20.158L17.1939 20.609ZM17.4092 19.1606C17.6711 18.7234 18.0919 18.4116 18.5861 18.288L19.0362 20.0888C19.0263 20.0913 19.0201 20.0948 19.016 20.0978C19.0119 20.1009 19.0068 20.1058 19.0015 20.1146L17.4092 19.1606ZM18.5852 18.2883C18.7389 18.2497 18.8957 18.2305 19.0517 18.2305V20.0867C19.0477 20.0867 19.0428 20.0872 19.0371 20.0886L18.5852 18.2883ZM19.0527 18.2305C19.3679 18.2308 19.6686 18.3111 19.9349 18.4504L19.0744 20.0951C19.0656 20.0905 19.0593 20.0884 19.0558 20.0875C19.0524 20.0867 19.0509 20.0867 19.0507 20.0867L19.0527 18.2305ZM18.5776 19.2288C18.5936 18.8913 18.6954 18.5387 18.9126 18.2255L20.4379 19.2832C20.4406 19.2793 20.4331 19.2872 20.4317 19.3166L18.5776 19.2288ZM18.9124 18.2256C19.5003 17.3775 20.64 17.1793 21.4947 17.6922L20.5397 19.2838C20.5126 19.2676 20.4861 19.265 20.4653 19.2691C20.445 19.2732 20.4394 19.281 20.438 19.283L18.9124 18.2256ZM21.4946 17.6921L25.2948 19.9716L24.34 21.5634L20.5398 19.2839L21.4946 17.6921ZM24.006 21.218L23.5161 20.3357L25.139 19.4347L25.6288 20.317L24.006 21.218ZM23.5171 20.3374C23.1665 19.7091 23.1805 18.9391 23.5498 18.3232L25.1417 19.2779C25.1125 19.3266 25.1127 19.3876 25.138 19.433L23.5171 20.3374ZM23.55 18.3228C23.7311 18.0214 23.9881 17.7733 24.2934 17.6021L25.2013 19.2211C25.175 19.2358 25.1546 19.2564 25.1414 19.2783L23.55 18.3228ZM24.2979 17.5996C24.5756 17.4459 24.8784 17.3723 25.1768 17.3723V19.2285C25.18 19.2285 25.1837 19.2281 25.1876 19.2271C25.1916 19.2261 25.1948 19.2247 25.1968 19.2236L24.2979 17.5996ZM25.1773 17.3723C25.8116 17.3726 26.4344 17.7072 26.767 18.3082L25.143 19.2071C25.1444 19.2097 25.1469 19.2132 25.1503 19.2166C25.1536 19.2199 25.1569 19.2224 25.1599 19.2241C25.1651 19.2271 25.1703 19.2285 25.1763 19.2285L25.1773 17.3723ZM26.7665 18.3072C27.3306 19.3238 28.3928 21.2364 28.4665 21.3683L26.8466 22.2744C26.7708 22.139 25.7063 20.2221 25.1435 19.208L26.7665 18.3072ZM28.4212 21.2953C28.4343 21.3144 28.4801 21.3801 28.5209 21.4381L27.0025 22.5057C26.9609 22.4466 26.9106 22.3746 26.8919 22.3474L28.4212 21.2953ZM28.5202 21.4371C28.5394 21.4643 28.5644 21.4964 28.6014 21.541L27.1725 22.7258C27.1219 22.6648 27.0623 22.5906 27.0031 22.5067L28.5202 21.4371ZM28.6029 21.5428C29.8008 22.995 29.9492 24.929 28.9811 26.5424L27.3894 25.5873C27.9514 24.6509 27.8709 23.5723 27.171 22.724L28.6029 21.5428ZM27.8858 25.1864L27.8858 25.1864L28.4848 26.9433L28.4847 26.9433L27.8858 25.1864ZM26.7674 23.0582C26.7087 22.9872 26.64 22.9014 26.5732 22.806L28.0929 21.7403C28.1192 21.7778 28.1528 21.8209 28.1985 21.8761L26.7674 23.0582ZM26.5744 22.8078C26.516 22.7249 26.4532 22.6369 26.4115 22.5679C26.3836 22.5217 26.3463 22.4543 26.3148 22.3684C26.2841 22.2848 26.2704 22.2132 26.2675 22.1984L28.0867 21.83C28.0891 21.8416 28.0799 21.7903 28.0573 21.7288C28.0339 21.665 28.0083 21.6214 28.0004 21.6082C27.9966 21.602 27.9951 21.5999 27.9981 21.6044C28.0008 21.6086 28.0058 21.6159 28.0141 21.628C28.0314 21.653 28.0552 21.6868 28.0917 21.7385L26.5744 22.8078ZM26.3828 22.4943C26.2055 22.201 25.7882 21.4492 24.6852 19.4621L26.3081 18.5613C27.4266 20.5763 27.8174 21.2794 27.9714 21.5341L26.3828 22.4943ZM24.685 19.4618C24.8353 19.7328 25.1774 19.8325 25.4504 19.6817L24.5527 18.057C25.1783 17.7113 25.9632 17.9393 26.3083 18.5615L24.685 19.4618ZM25.4547 19.6793C25.5093 19.6487 25.5578 19.6018 25.5903 19.5476L23.9983 18.5931C24.1324 18.3694 24.3203 18.187 24.5484 18.0594L25.4547 19.6793ZM25.5902 19.5478C25.6566 19.437 25.6611 19.2969 25.595 19.1783L23.9743 20.0832C23.7136 19.6163 23.726 19.0472 23.9984 18.593L25.5902 19.5478ZM25.5961 19.1804L26.5601 20.9172L24.9371 21.818L23.9731 20.0811L25.5961 19.1804ZM26.5599 20.917C26.8212 21.3875 26.7344 21.9752 26.3471 22.3499L25.0566 21.0157C24.8394 21.2257 24.791 21.555 24.9372 21.8182L26.5599 20.917ZM26.3484 22.3486C25.9579 22.7278 25.3676 22.7885 24.9105 22.5167L25.8595 20.9214C25.6064 20.7709 25.2758 20.8028 25.0553 21.017L26.3484 22.3486ZM24.9075 22.5149L20.2702 19.7329L21.2251 18.1412L25.8624 20.9232L24.9075 22.5149ZM20.2705 19.7331C20.361 19.7874 20.4633 19.8032 20.5592 19.786C20.6552 19.7688 20.7789 19.7106 20.8688 19.5809L19.3428 18.5241C19.7895 17.879 20.6389 17.7898 21.2248 18.141L20.2705 19.7331ZM20.8686 19.5811C20.9411 19.4766 20.9691 19.3367 20.9365 19.2054L19.135 19.6529C19.0375 19.2602 19.115 18.8528 19.343 18.5239L20.8686 19.5811ZM20.9361 19.2041C20.9058 19.0825 20.8272 18.9789 20.724 18.917L19.7693 20.5088C19.4539 20.3197 19.2255 20.0146 19.1354 19.6543L20.9361 19.2041ZM20.6618 18.8828C20.7456 18.9248 20.8073 18.9715 20.8464 19.0045C20.8656 19.0208 20.8804 19.0347 20.8894 19.0433C20.894 19.0477 20.8976 19.0513 20.8998 19.0535C20.9009 19.0546 20.9019 19.0555 20.9024 19.0561C20.9027 19.0563 20.9029 19.0566 20.9031 19.0567C20.9031 19.0568 20.9032 19.0568 20.9032 19.0569C20.9032 19.0569 20.9033 19.0569 20.9033 19.0569C20.9033 19.0569 20.9033 19.0569 20.9033 19.0569C20.9033 19.0569 20.9033 19.0569 20.9033 19.0569C20.9036 19.0572 20.9019 19.0555 20.8999 19.0536C20.8977 19.0514 20.8941 19.0479 20.8896 19.0435C20.8807 19.035 20.8659 19.0211 20.8467 19.0049C20.8078 18.972 20.7463 18.9253 20.6626 18.8835L19.8323 20.5436C19.7485 20.5017 19.6868 20.4549 19.6478 20.4219C19.6286 20.4057 19.6137 20.3917 19.6047 20.3831C19.6002 20.3788 19.5965 20.3752 19.5943 20.373C19.5932 20.3719 19.5923 20.371 19.5917 20.3704C19.5914 20.3701 19.5912 20.3699 19.5911 20.3697C19.591 20.3697 19.5909 20.3696 19.5909 20.3696C19.5909 20.3696 19.5909 20.3695 19.5909 20.3695C19.5908 20.3695 19.5908 20.3695 19.5908 20.3695C19.5908 20.3695 19.5908 20.3695 19.5908 20.3695C19.5905 20.3692 19.5922 20.3709 19.5942 20.3729C19.5964 20.375 19.6 20.3786 19.6045 20.3829C19.6135 20.3915 19.6283 20.4054 19.6474 20.4215C19.6863 20.4545 19.7478 20.5011 19.8315 20.543L20.6618 18.8828ZM20.7249 18.9177L23.757 20.7367L22.8021 22.3284L19.77 20.5094L20.7249 18.9177ZM23.7573 20.7369C24.3207 21.0752 24.5031 21.8059 24.1652 22.3692L22.5733 21.4145C22.3844 21.7296 22.4863 22.1388 22.8017 22.3282L23.7573 20.7369ZM24.1646 22.3701C23.8271 22.9314 23.0974 23.1165 22.5323 22.7773L23.4876 21.1858C23.1711 20.9959 22.7625 21.0999 22.5739 21.4136L24.1646 22.3701ZM22.5325 22.7774L18.81 20.5444L19.7649 18.9526L23.4874 21.1857L22.5325 22.7774ZM18.8103 20.5445C18.9146 20.607 19.0431 20.6271 19.1644 20.5966L18.7119 18.7964C19.072 18.7059 19.4491 18.7634 19.7646 18.9524L18.8103 20.5445ZM19.1627 20.597C19.2832 20.567 19.388 20.4887 19.4508 20.3837L17.8578 19.4308C18.0475 19.1136 18.3537 18.8857 18.7137 18.796L19.1627 20.597ZM19.4496 20.3856C19.5133 20.2797 19.5319 20.1515 19.5028 20.0338L17.7009 20.4793C17.6127 20.1228 17.668 19.7463 17.859 19.4288L19.4496 20.3856ZM19.5022 20.0314C19.472 19.9105 19.3939 19.807 19.2904 19.7448L18.3347 21.336C18.0193 21.1466 17.7914 20.8413 17.7014 20.4816L19.5022 20.0314ZM19.2899 19.7445L20.0143 20.1789L19.0596 21.7708L18.3352 21.3363L19.2899 19.7445ZM20.0144 20.179L23.0123 21.9777L22.0574 23.5694L19.0594 21.7707L20.0144 20.179ZM23.0127 21.9779C23.5761 22.3162 23.7584 23.0468 23.4205 23.6102L21.8286 22.6555C21.6397 22.9706 21.7416 23.3797 22.057 23.5692L23.0127 21.9779ZM23.4199 23.6111C23.0819 24.1733 22.3522 24.3565 21.7883 24.0187L22.7421 22.4263C22.4269 22.2375 22.0183 22.34 21.8292 22.6546L23.4199 23.6111ZM21.7878 24.0184L18.7551 22.1989L19.71 20.6072L22.7427 22.4267L21.7878 24.0184ZM18.7542 22.1983C18.977 22.3324 19.2629 22.2589 19.3948 22.0393L17.8036 21.0836C18.1979 20.4271 19.0518 20.2113 19.7109 20.6077L18.7542 22.1983ZM19.3948 22.0393C19.4581 21.934 19.4768 21.8061 19.4477 21.6882L17.6458 22.1337C17.5576 21.777 17.6131 21.4008 17.8036 21.0836L19.3948 22.0393ZM19.4471 21.6858C19.4167 21.5641 19.3382 21.4609 19.2358 21.3994L18.2794 22.9902C17.9649 22.8011 17.7365 22.4965 17.6463 22.136L19.4471 21.6858ZM19.2351 21.3989L19.9786 21.845L19.0237 23.4367L18.2802 22.9906L19.2351 21.3989ZM19.9786 21.845L22.2678 23.2184L21.3128 24.8101L19.0237 23.4367L19.9786 21.845ZM22.2681 23.2186C22.8315 23.557 23.0138 24.2876 22.6759 24.851L21.0841 23.8962C20.8951 24.2113 20.9971 24.6205 21.3125 24.8099L22.2681 23.2186ZM22.6754 24.8519C22.3384 25.4123 21.6086 25.5993 21.0423 25.2586L21.9992 23.668C21.6815 23.4769 21.2727 23.5825 21.0847 23.8953L22.6754 24.8519ZM21.0432 25.2591L18.7541 23.8857L19.709 22.294L21.9982 23.6675L21.0432 25.2591ZM18.7544 23.8859C18.8589 23.9486 18.9876 23.9681 19.1072 23.9383L18.657 22.1375C19.0167 22.0476 19.3929 22.1046 19.7087 22.2938L18.7544 23.8859ZM19.1072 23.9382C19.2266 23.9084 19.3309 23.8311 19.3941 23.7258L17.8024 22.7708C17.9925 22.4539 18.2988 22.227 18.657 22.1375L19.1072 23.9382ZM19.3944 23.7252C19.4567 23.6211 19.4761 23.4938 19.4466 23.3747L17.6449 23.8208C17.5563 23.4632 17.6128 23.0873 17.8021 22.7713L19.3944 23.7252ZM19.4461 23.3726C19.4157 23.251 19.3372 23.1477 19.2349 23.0862L18.2784 24.677C17.9639 24.4879 17.7355 24.1833 17.6454 23.8228L19.4461 23.3726ZM19.2341 23.0857L23.8748 25.8697L22.9199 27.4614L18.2792 24.6775L19.2341 23.0857ZM23.8748 25.8697C24.4388 26.2081 25.0719 26.3157 25.6563 26.1965L26.0274 28.0152C24.9659 28.2318 23.862 28.0266 22.9199 27.4614L23.8748 25.8697ZM25.6561 26.1965C26.2301 26.0793 26.6743 25.7613 26.94 25.3183L28.5318 26.2731C27.9835 27.1873 27.0823 27.7998 26.0275 28.0152L25.6561 26.1965ZM26.9402 25.318C27.3947 24.5608 27.3341 23.7444 26.7675 23.058L28.199 21.8763C29.2641 23.1667 29.3927 24.839 28.5317 26.2733L26.9402 25.318ZM27.5752 23.3907L27.5749 23.3907L27.391 21.5436L27.3913 21.5436L27.5752 23.3907Z" fill="#4CAF4F" mask="url(#path-4-inside-2_211_2338)"/>
</svg>
