<svg width="23" height="22" viewBox="0 0 23 22" fill="none" xmlns="http://www.w3.org/2000/svg">
<mask id="path-1-inside-1_211_2339" fill="white">
<path d="M14.3153 11.0068C14.1477 11.0068 13.9921 10.9607 13.8538 10.8866V10.8886C13.8538 11.1523 13.7513 11.3999 13.5654 11.5854C13.3794 11.7714 13.1319 11.8739 12.8685 11.8739C12.6985 11.8739 12.5409 11.8266 12.4012 11.7505C12.387 11.9918 12.2906 12.2172 12.1186 12.3895C11.9326 12.5754 11.6852 12.6779 11.4216 12.6779C10.898 12.6779 10.4727 12.2663 10.4421 11.7504C10.2801 11.8379 10.0969 11.8839 9.90794 11.8717C9.39282 11.8379 8.98941 11.3929 8.98941 10.8582V6.4266L8.48479 7.30084C8.29259 7.63521 7.93281 7.84282 7.54544 7.84282C7.35668 7.84282 7.17022 7.7933 7.00509 7.69868C6.79944 7.57945 6.65234 7.38808 6.59117 7.15912C6.52967 6.93003 6.56149 6.69043 6.68038 6.4851C6.68055 6.4851 8.33145 3.6262 8.43217 3.45059C8.44414 3.42419 8.47825 3.34761 8.50728 3.28234C8.53499 3.22002 8.55877 3.15606 8.58157 3.09178C9.07943 1.68622 10.3122 0.813114 11.7989 0.813114C13.7296 0.813114 15.3003 2.51633 15.3003 4.60989L15.3005 10.0214C15.3005 10.2848 15.1982 10.5322 15.0124 10.7184C14.8264 10.9043 14.5789 11.0068 14.3153 11.0068L14.3153 11.0068ZM11.799 1.33666C10.5214 1.33666 9.50322 2.05825 9.07504 3.26687C9.04765 3.34361 9.01912 3.42036 8.98583 3.49514C8.88924 3.71178 8.88924 3.71178 8.86201 3.74294L8.85841 3.73982C8.72361 3.99417 8.32314 4.68769 7.1337 6.74712C7.08483 6.83158 7.07187 6.92965 7.0968 7.02345C7.12205 7.11725 7.18257 7.1963 7.26637 7.24467C7.52646 7.39407 7.88267 7.29764 8.03091 7.03935L9.02454 5.31906C9.0839 5.21656 9.20394 5.16622 9.31907 5.19737C9.43354 5.22804 9.51307 5.33185 9.51307 5.45025V10.8584C9.51307 11.1136 9.7056 11.3338 9.94225 11.3494C10.0787 11.3566 10.206 11.3108 10.3016 11.2154C10.3885 11.1285 10.4364 11.0127 10.4364 10.8889V7.35188C10.4364 7.20724 10.5536 7.08998 10.6983 7.08998C10.8429 7.08998 10.9602 7.20708 10.9602 7.35188L10.96 11.6928C10.96 11.9473 11.1671 12.1545 11.4216 12.1545C11.5453 12.1545 11.6614 12.1066 11.7485 12.0197C11.8354 11.9326 11.8833 11.8165 11.8833 11.6928V7.35188C11.8833 7.20724 12.0004 7.08998 12.1452 7.08998C12.2898 7.08998 12.4071 7.20707 12.4071 7.35188L12.4069 10.8482V10.8889C12.4069 11.1432 12.614 11.3503 12.8687 11.3503C12.9922 11.3503 13.108 11.3023 13.1955 11.215C13.2825 11.1283 13.3303 11.0125 13.3303 10.8887V7.3517C13.3303 7.20705 13.4474 7.0898 13.5922 7.0898C13.7369 7.0898 13.8541 7.20689 13.8541 7.3517L13.8538 10.0215C13.8538 10.2762 14.0609 10.4833 14.3153 10.4833C14.4391 10.4833 14.5549 10.4353 14.6418 10.3485C14.729 10.2613 14.7767 10.1452 14.7767 10.0215L14.7769 4.61001C14.7769 2.80529 13.441 1.33671 11.7989 1.33671L11.799 1.33666Z"/>
</mask>
<path d="M14.3153 11.0068C14.1477 11.0068 13.9921 10.9607 13.8538 10.8866V10.8886C13.8538 11.1523 13.7513 11.3999 13.5654 11.5854C13.3794 11.7714 13.1319 11.8739 12.8685 11.8739C12.6985 11.8739 12.5409 11.8266 12.4012 11.7505C12.387 11.9918 12.2906 12.2172 12.1186 12.3895C11.9326 12.5754 11.6852 12.6779 11.4216 12.6779C10.898 12.6779 10.4727 12.2663 10.4421 11.7504C10.2801 11.8379 10.0969 11.8839 9.90794 11.8717C9.39282 11.8379 8.98941 11.3929 8.98941 10.8582V6.4266L8.48479 7.30084C8.29259 7.63521 7.93281 7.84282 7.54544 7.84282C7.35668 7.84282 7.17022 7.7933 7.00509 7.69868C6.79944 7.57945 6.65234 7.38808 6.59117 7.15912C6.52967 6.93003 6.56149 6.69043 6.68038 6.4851C6.68055 6.4851 8.33145 3.6262 8.43217 3.45059C8.44414 3.42419 8.47825 3.34761 8.50728 3.28234C8.53499 3.22002 8.55877 3.15606 8.58157 3.09178C9.07943 1.68622 10.3122 0.813114 11.7989 0.813114C13.7296 0.813114 15.3003 2.51633 15.3003 4.60989L15.3005 10.0214C15.3005 10.2848 15.1982 10.5322 15.0124 10.7184C14.8264 10.9043 14.5789 11.0068 14.3153 11.0068L14.3153 11.0068ZM11.799 1.33666C10.5214 1.33666 9.50322 2.05825 9.07504 3.26687C9.04765 3.34361 9.01912 3.42036 8.98583 3.49514C8.88924 3.71178 8.88924 3.71178 8.86201 3.74294L8.85841 3.73982C8.72361 3.99417 8.32314 4.68769 7.1337 6.74712C7.08483 6.83158 7.07187 6.92965 7.0968 7.02345C7.12205 7.11725 7.18257 7.1963 7.26637 7.24467C7.52646 7.39407 7.88267 7.29764 8.03091 7.03935L9.02454 5.31906C9.0839 5.21656 9.20394 5.16622 9.31907 5.19737C9.43354 5.22804 9.51307 5.33185 9.51307 5.45025V10.8584C9.51307 11.1136 9.7056 11.3338 9.94225 11.3494C10.0787 11.3566 10.206 11.3108 10.3016 11.2154C10.3885 11.1285 10.4364 11.0127 10.4364 10.8889V7.35188C10.4364 7.20724 10.5536 7.08998 10.6983 7.08998C10.8429 7.08998 10.9602 7.20708 10.9602 7.35188L10.96 11.6928C10.96 11.9473 11.1671 12.1545 11.4216 12.1545C11.5453 12.1545 11.6614 12.1066 11.7485 12.0197C11.8354 11.9326 11.8833 11.8165 11.8833 11.6928V7.35188C11.8833 7.20724 12.0004 7.08998 12.1452 7.08998C12.2898 7.08998 12.4071 7.20707 12.4071 7.35188L12.4069 10.8482V10.8889C12.4069 11.1432 12.614 11.3503 12.8687 11.3503C12.9922 11.3503 13.108 11.3023 13.1955 11.215C13.2825 11.1283 13.3303 11.0125 13.3303 10.8887V7.3517C13.3303 7.20705 13.4474 7.0898 13.5922 7.0898C13.7369 7.0898 13.8541 7.20689 13.8541 7.3517L13.8538 10.0215C13.8538 10.2762 14.0609 10.4833 14.3153 10.4833C14.4391 10.4833 14.5549 10.4353 14.6418 10.3485C14.729 10.2613 14.7767 10.1452 14.7767 10.0215L14.7769 4.61001C14.7769 2.80529 13.441 1.33671 11.7989 1.33671L11.799 1.33666Z" fill="#4CAF4F"/>
<path d="M14.3153 11.0068V10.0787H17.5943L14.8017 11.7972L14.3153 11.0068ZM13.8538 10.8866H12.9257V9.33587L14.2924 10.0687L13.8538 10.8866ZM13.5654 11.5854L12.9091 10.9291L12.91 10.9283L13.5654 11.5854ZM12.4012 11.7505L11.4746 11.6964L11.56 10.2357L12.845 10.9355L12.4012 11.7505ZM12.1186 12.3895L12.7752 13.0454L12.7749 13.0457L12.1186 12.3895ZM10.4421 11.7504L10.0008 10.9339L11.2822 10.2413L11.3685 11.6953L10.4421 11.7504ZM9.90794 11.8717L9.84844 12.7979L9.8472 12.7978L9.90794 11.8717ZM8.98941 6.4266L8.18562 5.96263L9.91751 2.96222V6.4266H8.98941ZM8.48479 7.30084L7.68015 6.83833L7.68099 6.83687L8.48479 7.30084ZM7.00509 7.69868L6.54367 8.50395L6.5396 8.5016L7.00509 7.69868ZM6.59117 7.15912L7.48753 6.91852L7.48781 6.91956L6.59117 7.15912ZM6.68038 6.4851L5.87721 6.02004L6.14533 5.55701H6.68038V6.4851ZM8.43217 3.45059L9.27743 3.83385L9.25921 3.87404L9.23725 3.91232L8.43217 3.45059ZM8.50728 3.28234L7.65926 2.90521L7.65927 2.9052L8.50728 3.28234ZM8.58157 3.09178L9.4564 3.40165L9.45631 3.4019L8.58157 3.09178ZM15.3003 4.60989L14.3722 4.60992V4.60989H15.3003ZM15.3005 10.0214L16.2286 10.0214V10.0214H15.3005ZM15.0124 10.7184L15.6692 11.374L15.6686 11.3746L15.0124 10.7184ZM14.3153 11.0068V11.9349H11.0363L13.8288 10.2164L14.3153 11.0068ZM11.799 1.33666V0.408565H13.0294L12.6913 1.59162L11.799 1.33666ZM9.07504 3.26687L9.94986 3.57679L9.94915 3.57878L9.07504 3.26687ZM8.98583 3.49514L9.8337 3.8726L9.83348 3.87309L8.98583 3.49514ZM8.86201 3.74294L9.56091 4.35359L8.95376 5.04847L8.25539 4.44534L8.86201 3.74294ZM8.85841 3.73982L8.03836 3.30522L8.58368 2.27626L9.46503 3.03742L8.85841 3.73982ZM7.1337 6.74712L7.93738 7.21129L7.93699 7.21196L7.1337 6.74712ZM7.0968 7.02345L6.20061 7.26472L6.19984 7.26182L7.0968 7.02345ZM7.26637 7.24467L6.8041 8.04945L6.80237 8.04845L7.26637 7.24467ZM8.03091 7.03935L7.22596 6.57737L7.22724 6.57516L8.03091 7.03935ZM9.02454 5.31906L8.22087 4.85486L8.22144 4.85389L9.02454 5.31906ZM9.31907 5.19737L9.0789 6.09386L9.0766 6.09323L9.31907 5.19737ZM9.94225 11.3494L9.89323 12.2762L9.8813 12.2755L9.94225 11.3494ZM10.3016 11.2154L10.9578 11.8716L10.9572 11.8722L10.3016 11.2154ZM10.9602 7.35188H11.8882V7.35192L10.9602 7.35188ZM10.96 11.6928H10.0319V11.6928L10.96 11.6928ZM11.7485 12.0197L12.4053 12.6753L12.4041 12.6766L11.7485 12.0197ZM12.4071 7.35188H13.3352V7.35192L12.4071 7.35188ZM12.4069 10.8482H11.4788V10.8481L12.4069 10.8482ZM13.1955 11.215L13.8512 11.8719L13.8506 11.8725L13.1955 11.215ZM13.8541 7.3517H14.7822V7.35181L13.8541 7.3517ZM13.8538 10.0215H12.9257V10.0214L13.8538 10.0215ZM14.6418 10.3485L15.298 11.0048L15.2974 11.0054L14.6418 10.3485ZM14.7767 10.0215H13.8486V10.0215L14.7767 10.0215ZM14.7769 4.61001H15.705V4.61004L14.7769 4.61001ZM11.7989 1.33671V2.2648H10.5685L10.9066 1.08174L11.7989 1.33671ZM14.3153 11.9349C13.9735 11.9349 13.6684 11.8403 13.4152 11.7045L14.2924 10.0687C14.3044 10.0751 14.312 10.0776 14.315 10.0784C14.3176 10.0791 14.3173 10.0787 14.3153 10.0787V11.9349ZM14.7819 10.8866V10.8886H12.9257V10.8866H14.7819ZM14.7819 10.8886C14.7819 11.3976 14.5821 11.8821 14.2207 12.2425L12.91 10.9283C12.9166 10.9216 12.9199 10.916 12.9218 10.9113C12.9237 10.9067 12.9257 10.8995 12.9257 10.8886H14.7819ZM14.2216 12.2416C13.8614 12.6018 13.3779 12.8019 12.8685 12.8019V10.9458C12.8792 10.9458 12.8862 10.9438 12.8909 10.9419C12.8957 10.9399 12.9018 10.9364 12.9091 10.9291L14.2216 12.2416ZM12.8685 12.8019C12.5223 12.8019 12.2134 12.7051 11.9573 12.5656L12.845 10.9355C12.8571 10.942 12.8648 10.9445 12.8678 10.9454C12.8704 10.9461 12.8702 10.9458 12.8685 10.9458V12.8019ZM13.3277 11.8047C13.301 12.2615 13.1156 12.7046 12.7752 13.0454L11.462 11.7335C11.4654 11.7301 11.4674 11.727 11.4691 11.7232C11.4709 11.719 11.4738 11.7105 11.4746 11.6964L13.3277 11.8047ZM12.7749 13.0457C12.4146 13.4059 11.931 13.606 11.4216 13.606V11.7498C11.4324 11.7498 11.4395 11.7479 11.4442 11.7459C11.449 11.7439 11.4551 11.7404 11.4623 11.7332L12.7749 13.0457ZM11.4216 13.606C10.397 13.606 9.57481 12.8018 9.51562 11.8054L11.3685 11.6953C11.3695 11.7111 11.3759 11.725 11.3874 11.7359C11.3929 11.7412 11.3986 11.7446 11.4035 11.7466C11.4078 11.7484 11.4133 11.7498 11.4216 11.7498V13.606ZM10.8834 12.5668C10.5836 12.7289 10.2281 12.8223 9.84844 12.7979L9.96744 10.9455C9.96745 10.9455 9.96944 10.9457 9.97433 10.9446C9.97956 10.9434 9.98864 10.9405 10.0008 10.9339L10.8834 12.5668ZM9.8472 12.7978C8.81671 12.7302 8.06132 11.8539 8.06132 10.8582H9.91751C9.91751 10.8896 9.9289 10.9138 9.94318 10.9295C9.9571 10.9449 9.96655 10.9455 9.96867 10.9456L9.8472 12.7978ZM8.06132 10.8582V6.4266H9.91751V10.8582H8.06132ZM9.79321 6.89057L9.28859 7.7648L7.68099 6.83687L8.18562 5.96263L9.79321 6.89057ZM9.28943 7.76334C8.93081 8.38725 8.26327 8.77092 7.54544 8.77092V6.91473C7.60235 6.91473 7.65437 6.88318 7.68015 6.83833L9.28943 7.76334ZM7.54544 8.77092C7.19447 8.77092 6.84898 8.67888 6.54367 8.50394L7.46651 6.89341C7.49147 6.90771 7.5189 6.91473 7.54544 6.91473V8.77092ZM6.5396 8.5016C6.12292 8.26003 5.81963 7.8669 5.69453 7.39869L7.48781 6.91956C7.48696 6.91639 7.48465 6.91078 7.48018 6.90496C7.47574 6.89918 7.47164 6.89637 7.47057 6.89576L6.5396 8.5016ZM5.69481 7.39973C5.56922 6.93186 5.63497 6.43841 5.87721 6.02004L7.48355 6.95016C7.48487 6.94788 7.48719 6.94258 7.48819 6.93508C7.48918 6.92756 7.48835 6.92155 7.48753 6.91852L5.69481 7.39973ZM6.68038 5.55701C6.22512 5.67634 5.88435 6.00793 5.88181 6.0122C5.88096 6.01363 5.8797 6.01578 5.8793 6.01647C5.87906 6.01686 5.87867 6.01754 5.87854 6.01777C5.87845 6.01791 5.87828 6.0182 5.87824 6.01827C5.87811 6.0185 5.87815 6.01843 5.8785 6.01783C5.87913 6.01674 5.88019 6.01491 5.88173 6.01225C5.88478 6.00697 5.88936 5.99905 5.89541 5.98858C5.90749 5.96767 5.92525 5.93693 5.94792 5.89769C5.99325 5.81921 6.05813 5.70688 6.13631 5.57151C6.29266 5.30077 6.50217 4.93795 6.71482 4.56964C7.14085 3.83178 7.57761 3.07512 7.62708 2.98886L9.23725 3.91232C9.18601 4.00167 8.74696 4.76227 8.32231 5.49776C8.10963 5.86612 7.90009 6.229 7.7437 6.49979C7.66551 6.63519 7.6006 6.74758 7.55522 6.82614C7.53253 6.86541 7.51471 6.89626 7.50254 6.91732C7.49647 6.92783 7.49176 6.93598 7.48854 6.94154C7.48695 6.94429 7.48563 6.94656 7.48467 6.94823C7.48423 6.949 7.48366 6.94996 7.48313 6.95088C7.48294 6.95122 7.48234 6.95224 7.48162 6.95347C7.48117 6.95424 7.47987 6.95646 7.479 6.95793C7.47642 6.96225 7.13565 7.29386 6.68038 7.41319V5.55701ZM7.58691 3.06733C7.59712 3.0448 7.62949 2.97216 7.65926 2.90521L9.3553 3.65946C9.32701 3.72306 9.29116 3.80358 9.27743 3.83385L7.58691 3.06733ZM7.65927 2.9052C7.67217 2.87619 7.68644 2.83913 7.70682 2.78165L9.45631 3.4019C9.43111 3.47299 9.39782 3.56384 9.35529 3.65947L7.65927 2.9052ZM7.70673 2.7819C8.33532 1.00729 9.9175 -0.114979 11.7989 -0.114979V1.74121C10.7069 1.74121 9.82354 2.36515 9.4564 3.40165L7.70673 2.7819ZM11.7989 -0.114979C14.3115 -0.114979 16.2284 2.07596 16.2284 4.60989H14.3722C14.3722 2.9567 13.1477 1.74121 11.7989 1.74121V-0.114979ZM16.2284 4.60986L16.2286 10.0214L14.3724 10.0214L14.3722 4.60992L16.2284 4.60986ZM16.2286 10.0214C16.2286 10.5303 16.0289 11.0137 15.6692 11.374L14.3555 10.0627C14.3628 10.0554 14.3664 10.0491 14.3684 10.0442C14.3704 10.0394 14.3724 10.0322 14.3724 10.0214H16.2286ZM15.6686 11.3746C15.3084 11.7349 14.8247 11.9349 14.3153 11.9349V10.0787C14.3262 10.0787 14.3333 10.0768 14.338 10.0748C14.3428 10.0728 14.3489 10.0693 14.3561 10.0621L15.6686 11.3746ZM13.8288 10.2164L13.8289 10.2164L14.8017 11.7972L14.8017 11.7972L13.8288 10.2164ZM11.799 2.26475C10.9166 2.26475 10.2474 2.73679 9.94986 3.57679L8.20022 2.95695C8.75899 1.3797 10.1263 0.408565 11.799 0.408565V2.26475ZM9.94915 3.57878C9.91985 3.66088 9.88179 3.76457 9.8337 3.8726L8.13796 3.11769C8.15645 3.07616 8.17546 3.02635 8.20093 2.95495L9.94915 3.57878ZM9.83348 3.87309C9.79098 3.96841 9.75537 4.04891 9.72812 4.10344C9.71121 4.13728 9.68384 4.18944 9.64413 4.24721C9.6039 4.30574 9.56415 4.34989 9.56091 4.35359L8.16312 3.13228C8.16529 3.12979 8.16458 3.1306 8.16348 3.13188C8.16206 3.13352 8.15846 3.13773 8.15373 3.1435C8.14882 3.14947 8.14265 3.15719 8.13569 3.16637C8.12867 3.17563 8.12153 3.18548 8.11439 3.19587C8.09985 3.21703 8.08865 3.23556 8.08069 3.24957C8.07326 3.26266 8.06871 3.27171 8.06769 3.27375C8.06664 3.27586 8.0673 3.27462 8.07045 3.26787C8.0735 3.26132 8.07783 3.2519 8.08404 3.23819C8.09019 3.22459 8.09756 3.20817 8.10664 3.18788C8.11569 3.16762 8.12604 3.14441 8.13818 3.1172L9.83348 3.87309ZM8.25539 4.44534L8.25179 4.44222L9.46503 3.03742L9.46863 3.04053L8.25539 4.44534ZM9.67845 4.17442C9.5332 4.4485 9.11852 5.16623 7.93738 7.21129L6.33002 6.28295C7.52775 4.20915 7.91401 3.53984 8.03836 3.30522L9.67845 4.17442ZM7.93699 7.21196C8.01126 7.08363 8.03195 6.92879 7.99376 6.78507L6.19984 7.26182C6.11179 6.9305 6.1584 6.57953 6.3304 6.28228L7.93699 7.21196ZM7.99298 6.78217C7.95479 6.64032 7.86093 6.51626 7.73037 6.44089L6.80237 8.04845C6.50421 7.87633 6.28932 7.59418 6.20062 7.26472L7.99298 6.78217ZM7.72864 6.4399C7.62299 6.37921 7.52025 6.37961 7.4493 6.39872C7.37862 6.41774 7.288 6.46929 7.22596 6.57737L8.83585 7.50134C8.43136 8.20609 7.50697 8.45318 6.8041 8.04945L7.72864 6.4399ZM7.22724 6.57516L8.22087 4.85486L9.82821 5.78325L8.83457 7.50355L7.22724 6.57516ZM8.22144 4.85389C8.48951 4.39107 9.03667 4.15946 9.56154 4.30152L9.0766 6.09323C9.37122 6.17298 9.6783 6.04205 9.82764 5.78423L8.22144 4.85389ZM9.55924 4.3009C10.0799 4.44039 10.4412 4.91223 10.4412 5.45025H8.58498C8.58498 5.75147 8.78716 6.0157 9.0789 6.09385L9.55924 4.3009ZM10.4412 5.45025V10.8584H8.58498V5.45025H10.4412ZM10.4412 10.8584C10.4412 10.7526 10.402 10.6565 10.3377 10.5829C10.2735 10.5094 10.1601 10.4336 10.0032 10.4233L9.8813 12.2755C9.10002 12.224 8.58498 11.5435 8.58498 10.8584H10.4412ZM9.99127 10.4226C9.88162 10.4168 9.74767 10.4569 9.64587 10.5585L10.9572 11.8722C10.6642 12.1647 10.2758 12.2964 9.89324 12.2762L9.99127 10.4226ZM9.6453 10.5591C9.55722 10.6472 9.50827 10.7679 9.50827 10.8889H11.3645C11.3645 11.2575 11.2197 11.6097 10.9578 11.8716L9.6453 10.5591ZM9.50827 10.8889V7.35188H11.3645V10.8889H9.50827ZM9.50827 7.35188C9.50827 6.69467 10.041 6.16189 10.6983 6.16189V8.01808C11.0662 8.01808 11.3645 7.71981 11.3645 7.35188H9.50827ZM10.6983 6.16189C11.3551 6.16189 11.8882 6.69413 11.8882 7.35188H10.0321C10.0321 7.72002 10.3307 8.01808 10.6983 8.01808V6.16189ZM11.8882 7.35192L11.8881 11.6929L10.0319 11.6928L10.0321 7.35185L11.8882 7.35192ZM11.8881 11.6928C11.8881 11.4348 11.6797 11.2264 11.4216 11.2264V13.0826C10.6545 13.0826 10.0319 12.4599 10.0319 11.6928H11.8881ZM11.4216 11.2264C11.3008 11.2264 11.1807 11.275 11.0928 11.3628L12.4041 12.6766C12.142 12.9381 11.7897 13.0826 11.4216 13.0826V11.2264ZM11.0916 11.364C11.0038 11.4519 10.9552 11.572 10.9552 11.6928H12.8114C12.8114 12.0609 12.6669 12.4132 12.4053 12.6753L11.0916 11.364ZM10.9552 11.6928V7.35188H12.8114V11.6928H10.9552ZM10.9552 7.35188C10.9552 6.69505 11.4874 6.16189 12.1452 6.16189V8.01807C12.5133 8.01807 12.8114 7.71942 12.8114 7.35188H10.9552ZM12.1452 6.16189C12.802 6.16189 13.3352 6.69412 13.3352 7.35188H11.479C11.479 7.72002 11.7776 8.01807 12.1452 8.01807V6.16189ZM13.3352 7.35192L13.335 10.8482L11.4788 10.8481L11.479 7.35183L13.3352 7.35192ZM13.335 10.8482V10.8889H11.4788V10.8482H13.335ZM13.335 10.8889C13.335 10.6302 13.1261 10.4222 12.8687 10.4222V12.2784C12.1019 12.2784 11.4788 11.6562 11.4788 10.8889H13.335ZM12.8687 10.4222C12.7454 10.4222 12.626 10.4724 12.5405 10.5575L13.8506 11.8725C13.5899 12.1322 13.239 12.2784 12.8687 12.2784V10.4222ZM12.5399 10.5582C12.4511 10.6468 12.4022 10.7678 12.4022 10.8887H14.2584C14.2584 11.2572 14.1138 11.6098 13.8512 11.8719L12.5399 10.5582ZM12.4022 10.8887V7.3517H14.2584V10.8887H12.4022ZM12.4022 7.3517C12.4022 6.69486 12.9345 6.16171 13.5922 6.16171V8.01789C13.9604 8.01789 14.2584 7.71925 14.2584 7.3517H12.4022ZM13.5922 6.16171C14.2491 6.16171 14.7822 6.69394 14.7822 7.3517H12.926C12.926 7.71984 13.2247 8.01789 13.5922 8.01789V6.16171ZM14.7822 7.35181L14.7819 10.0216L12.9257 10.0214L12.926 7.35158L14.7822 7.35181ZM14.7819 10.0215C14.7819 9.76405 14.5739 9.55521 14.3153 9.55521V11.4114C13.5479 11.4114 12.9257 10.7883 12.9257 10.0215H14.7819ZM14.3153 9.55521C14.1935 9.55521 14.0734 9.60451 13.9861 9.69163L15.2974 11.0054C15.0363 11.266 14.6846 11.4114 14.3153 11.4114V9.55521ZM13.9855 9.69225C13.8971 9.78062 13.8486 9.90123 13.8486 10.0215H15.7048C15.7048 10.3891 15.5609 10.7419 15.298 11.0048L13.9855 9.69225ZM13.8486 10.0215L13.8488 4.60999L15.705 4.61004L15.7048 10.0215L13.8486 10.0215ZM13.8488 4.61001C13.8488 3.23328 12.8478 2.2648 11.7989 2.2648V0.408618C14.0343 0.408618 15.705 2.3773 15.705 4.61001H13.8488ZM10.9066 1.08174L10.9066 1.08169L12.6913 1.59162L12.6913 1.59168L10.9066 1.08174Z" fill="#4CAF4F" mask="url(#path-1-inside-1_211_2339)"/>
<path d="M2.93506 12.7949L2.8833 12.7675C2.87103 12.7896 2.83658 12.8515 2.78564 12.9433C2.80373 12.9523 2.82206 12.9599 2.84033 12.9667C2.87148 12.9106 2.90271 12.8531 2.93506 12.7949Z" fill="#4CAF4F" stroke="#4CAF4F" stroke-width="0.928093"/>
<mask id="path-4-inside-2_211_2339" fill="white">
<path d="M22.1853 20.0648C21.702 20.8708 20.9071 21.4225 19.947 21.6187C18.9953 21.8127 17.9945 21.6338 17.1283 21.1144L12.4876 18.3305C12.2617 18.195 12.102 17.9798 12.0381 17.7243C11.9746 17.4693 12.0143 17.2045 12.1496 16.9788C12.234 16.8378 12.3524 16.7266 12.4897 16.6444L12.4884 16.6436C12.2626 16.5082 12.1028 16.293 12.0392 16.0378C11.9753 15.7826 12.0149 15.5176 12.1504 15.2917C12.2376 15.1465 12.3572 15.033 12.4936 14.9525C12.2955 14.8162 12.1529 14.6183 12.0941 14.3835C12.0302 14.1281 12.0699 13.8633 12.2053 13.6376C12.3406 13.4118 12.556 13.2522 12.8111 13.1884C12.8908 13.1684 12.9717 13.1586 13.0517 13.1586C13.2088 13.1588 13.363 13.1986 13.5047 13.2727C13.5133 13.0892 13.568 12.909 13.6752 12.7543C13.9692 12.3301 14.5583 12.2127 15.0172 12.488L18.8174 14.7675L18.3275 13.8852C18.1396 13.5484 18.1465 13.1328 18.3457 12.8006C18.4428 12.6389 18.5816 12.5046 18.7474 12.4116C18.8836 12.3361 19.0312 12.3004 19.1768 12.3004C19.4896 12.3006 19.7933 12.4655 19.955 12.7576C20.5185 13.7729 21.5818 15.6877 21.6565 15.8213C21.6725 15.8445 21.7205 15.9133 21.7617 15.9719C21.8009 16.0275 21.8432 16.0806 21.887 16.1334C22.8358 17.2837 22.9503 18.7899 22.1853 20.0648L22.1853 20.0648ZM21.4829 16.4672C21.4308 16.404 21.3796 16.3396 21.333 16.2732C21.1914 16.0721 21.1877 16.0669 21.1771 16.0142C21.0115 15.7402 20.6074 15.0127 19.4967 13.0117C19.3993 12.836 19.1779 12.7719 19.0016 12.8693C18.9148 12.9179 18.8451 12.9856 18.7943 13.0704C18.6913 13.2421 18.6874 13.4566 18.7846 13.6308L19.7486 15.3676C19.8061 15.4712 19.7869 15.6005 19.7018 15.6828C19.6169 15.7653 19.487 15.7797 19.385 15.719L14.7476 12.937C14.529 12.806 14.2409 12.8573 14.1058 13.0525C14.0281 13.1647 14.0033 13.2985 14.0358 13.4292C14.0656 13.5486 14.1406 13.6493 14.2467 13.7129C14.247 13.7131 14.2471 13.7134 14.2475 13.7136L17.2795 15.5326C17.4035 15.607 17.4437 15.7677 17.3692 15.8919C17.2948 16.0157 17.1342 16.0562 17.0099 15.9816L13.2875 13.7485C13.1819 13.6852 13.0576 13.6665 12.9382 13.6965C12.8185 13.7264 12.7178 13.8011 12.6543 13.9072C12.5907 14.013 12.5723 14.1372 12.6018 14.2565C12.6317 14.3759 12.7066 14.4768 12.8125 14.5404L13.5369 14.9748L16.5348 16.7735C16.6588 16.848 16.699 17.0087 16.6246 17.1328C16.5501 17.2566 16.3895 17.297 16.2652 17.2225L13.2325 15.403C13.0144 15.2718 12.7304 15.343 12.5992 15.5614C12.5356 15.6674 12.5172 15.7915 12.5467 15.9109C12.5766 16.0303 12.6515 16.131 12.7576 16.1948L13.5012 16.6408L15.7903 18.0143C15.9143 18.0887 15.9545 18.2495 15.88 18.3736C15.8056 18.4974 15.645 18.5381 15.5207 18.4633L13.2316 17.0899C13.1259 17.0266 13.0021 17.0079 12.8821 17.0379C12.7627 17.0677 12.6617 17.1425 12.5982 17.2483C12.5348 17.3542 12.5162 17.4785 12.5457 17.5977C12.5756 17.7171 12.6505 17.8178 12.7566 17.8816L17.3973 20.6655C18.1504 21.1173 19.0189 21.2738 19.8418 21.1058C20.6562 20.9395 21.3289 20.4743 21.7359 19.7957C22.3937 18.6999 22.2991 17.4555 21.4832 16.4671L21.4829 16.4672Z"/>
</mask>
<path d="M22.1853 20.0648C21.702 20.8708 20.9071 21.4225 19.947 21.6187C18.9953 21.8127 17.9945 21.6338 17.1283 21.1144L12.4876 18.3305C12.2617 18.195 12.102 17.9798 12.0381 17.7243C11.9746 17.4693 12.0143 17.2045 12.1496 16.9788C12.234 16.8378 12.3524 16.7266 12.4897 16.6444L12.4884 16.6436C12.2626 16.5082 12.1028 16.293 12.0392 16.0378C11.9753 15.7826 12.0149 15.5176 12.1504 15.2917C12.2376 15.1465 12.3572 15.033 12.4936 14.9525C12.2955 14.8162 12.1529 14.6183 12.0941 14.3835C12.0302 14.1281 12.0699 13.8633 12.2053 13.6376C12.3406 13.4118 12.556 13.2522 12.8111 13.1884C12.8908 13.1684 12.9717 13.1586 13.0517 13.1586C13.2088 13.1588 13.363 13.1986 13.5047 13.2727C13.5133 13.0892 13.568 12.909 13.6752 12.7543C13.9692 12.3301 14.5583 12.2127 15.0172 12.488L18.8174 14.7675L18.3275 13.8852C18.1396 13.5484 18.1465 13.1328 18.3457 12.8006C18.4428 12.6389 18.5816 12.5046 18.7474 12.4116C18.8836 12.3361 19.0312 12.3004 19.1768 12.3004C19.4896 12.3006 19.7933 12.4655 19.955 12.7576C20.5185 13.7729 21.5818 15.6877 21.6565 15.8213C21.6725 15.8445 21.7205 15.9133 21.7617 15.9719C21.8009 16.0275 21.8432 16.0806 21.887 16.1334C22.8358 17.2837 22.9503 18.7899 22.1853 20.0648L22.1853 20.0648ZM21.4829 16.4672C21.4308 16.404 21.3796 16.3396 21.333 16.2732C21.1914 16.0721 21.1877 16.0669 21.1771 16.0142C21.0115 15.7402 20.6074 15.0127 19.4967 13.0117C19.3993 12.836 19.1779 12.7719 19.0016 12.8693C18.9148 12.9179 18.8451 12.9856 18.7943 13.0704C18.6913 13.2421 18.6874 13.4566 18.7846 13.6308L19.7486 15.3676C19.8061 15.4712 19.7869 15.6005 19.7018 15.6828C19.6169 15.7653 19.487 15.7797 19.385 15.719L14.7476 12.937C14.529 12.806 14.2409 12.8573 14.1058 13.0525C14.0281 13.1647 14.0033 13.2985 14.0358 13.4292C14.0656 13.5486 14.1406 13.6493 14.2467 13.7129C14.247 13.7131 14.2471 13.7134 14.2475 13.7136L17.2795 15.5326C17.4035 15.607 17.4437 15.7677 17.3692 15.8919C17.2948 16.0157 17.1342 16.0562 17.0099 15.9816L13.2875 13.7485C13.1819 13.6852 13.0576 13.6665 12.9382 13.6965C12.8185 13.7264 12.7178 13.8011 12.6543 13.9072C12.5907 14.013 12.5723 14.1372 12.6018 14.2565C12.6317 14.3759 12.7066 14.4768 12.8125 14.5404L13.5369 14.9748L16.5348 16.7735C16.6588 16.848 16.699 17.0087 16.6246 17.1328C16.5501 17.2566 16.3895 17.297 16.2652 17.2225L13.2325 15.403C13.0144 15.2718 12.7304 15.343 12.5992 15.5614C12.5356 15.6674 12.5172 15.7915 12.5467 15.9109C12.5766 16.0303 12.6515 16.131 12.7576 16.1948L13.5012 16.6408L15.7903 18.0143C15.9143 18.0887 15.9545 18.2495 15.88 18.3736C15.8056 18.4974 15.645 18.5381 15.5207 18.4633L13.2316 17.0899C13.1259 17.0266 13.0021 17.0079 12.8821 17.0379C12.7627 17.0677 12.6617 17.1425 12.5982 17.2483C12.5348 17.3542 12.5162 17.4785 12.5457 17.5977C12.5756 17.7171 12.6505 17.8178 12.7566 17.8816L17.3973 20.6655C18.1504 21.1173 19.0189 21.2738 19.8418 21.1058C20.6562 20.9395 21.3289 20.4743 21.7359 19.7957C22.3937 18.6999 22.2991 17.4555 21.4832 16.4671L21.4829 16.4672Z" fill="#4CAF4F"/>
<path d="M22.1853 20.0648L21.8858 19.1864L24.2845 18.3687L22.9813 20.5421L22.1853 20.0648ZM19.947 21.6187L20.1327 22.528L20.1324 22.5281L19.947 21.6187ZM17.1283 21.1144L16.651 21.9104L16.6508 21.9103L17.1283 21.1144ZM12.4876 18.3305L12.965 17.5346L12.965 17.5346L12.4876 18.3305ZM12.0381 17.7243L11.1377 17.9497L11.1374 17.9485L12.0381 17.7243ZM12.1496 16.9788L12.9458 17.4556L12.9456 17.4561L12.1496 16.9788ZM12.4897 16.6444L12.9816 15.8574L14.2682 16.6616L12.9663 17.4408L12.4897 16.6444ZM12.4884 16.6436L12.9658 15.8477L12.9731 15.8521L12.9803 15.8566L12.4884 16.6436ZM12.0392 16.0378L12.9395 15.8122L12.9397 15.8133L12.0392 16.0378ZM12.1504 15.2917L11.3544 14.8145L11.355 14.8135L12.1504 15.2917ZM12.4936 14.9525L13.0196 14.1879L14.2183 15.0124L12.9653 15.7518L12.4936 14.9525ZM12.0941 14.3835L12.9944 14.158L12.9945 14.1584L12.0941 14.3835ZM12.2053 13.6376L13.0015 14.1146L13.0011 14.1153L12.2053 13.6376ZM12.8111 13.1884L13.0371 14.0886L13.0362 14.0888L12.8111 13.1884ZM13.0517 13.1586V12.2305L13.0527 12.2305L13.0517 13.1586ZM13.5047 13.2727L14.4317 13.3166L14.3629 14.7692L13.0744 14.0951L13.5047 13.2727ZM13.6752 12.7543L14.438 13.283L14.4379 13.2832L13.6752 12.7543ZM15.0172 12.488L14.5398 13.2839L14.5397 13.2838L15.0172 12.488ZM18.8174 14.7675L19.6288 14.317L21.3098 17.3448L18.34 15.5634L18.8174 14.7675ZM18.3275 13.8852L19.138 13.433L19.139 13.4347L18.3275 13.8852ZM18.3457 12.8006L17.5498 12.3232L17.55 12.3228L18.3457 12.8006ZM18.7474 12.4116L18.2934 11.6021L18.2979 11.5996L18.7474 12.4116ZM19.1768 12.3004V11.3723L19.1773 11.3723L19.1768 12.3004ZM19.955 12.7576L19.1435 13.208L19.143 13.2071L19.955 12.7576ZM21.6565 15.8213L20.8919 16.3474L20.8676 16.312L20.8466 16.2744L21.6565 15.8213ZM21.7617 15.9719L21.0031 16.5067L21.0025 16.5057L21.7617 15.9719ZM21.887 16.1334L22.6014 15.541L22.6029 15.5428L21.887 16.1334ZM22.1853 20.0648L22.4847 20.9433L20.0849 21.7614L21.3894 19.5873L22.1853 20.0648ZM21.4829 16.4672L21.5749 17.3907L21.0825 17.4397L20.7674 17.0582L21.4829 16.4672ZM21.333 16.2732L22.0917 15.7385L22.0929 15.7403L21.333 16.2732ZM21.1771 16.0142L21.9714 15.5341L22.0547 15.6721L22.0867 15.83L21.1771 16.0142ZM19.4967 13.0117L18.6852 13.4621L18.685 13.4618L19.4967 13.0117ZM19.0016 12.8693L18.5484 12.0594L18.5527 12.057L19.0016 12.8693ZM18.7943 13.0704L19.5903 13.5476L19.5902 13.5478L18.7943 13.0704ZM18.7846 13.6308L19.595 13.1783L19.5961 13.1804L18.7846 13.6308ZM19.7486 15.3676L18.9372 15.8182L18.9371 15.818L19.7486 15.3676ZM19.7018 15.6828L19.0553 15.017L19.0566 15.0157L19.7018 15.6828ZM19.385 15.719L18.9105 16.5167L18.9075 16.5149L19.385 15.719ZM14.7476 12.937L15.2248 12.141L15.2251 12.1412L14.7476 12.937ZM14.1058 13.0525L14.8688 13.5809L14.8686 13.5811L14.1058 13.0525ZM14.0358 13.4292L13.1354 13.6543L13.135 13.6529L14.0358 13.4292ZM14.2467 13.7129L13.8315 14.543L13.7998 14.5271L13.7693 14.5088L14.2467 13.7129ZM14.2475 13.7136L14.6626 12.8835L14.6944 12.8994L14.7249 12.9177L14.2475 13.7136ZM17.2795 15.5326L17.757 14.7367L17.7573 14.7369L17.2795 15.5326ZM17.3692 15.8919L18.1652 16.3692L18.1646 16.3701L17.3692 15.8919ZM17.0099 15.9816L17.4874 15.1857L17.4876 15.1858L17.0099 15.9816ZM13.2875 13.7485L13.7646 12.9524L13.7649 12.9526L13.2875 13.7485ZM12.9382 13.6965L13.1644 14.5966L13.1627 14.597L12.9382 13.6965ZM12.6543 13.9072L13.4508 14.3837L13.4496 14.3856L12.6543 13.9072ZM12.6018 14.2565L11.7014 14.4816L11.7009 14.4793L12.6018 14.2565ZM12.8125 14.5404L12.3352 15.3363L12.3347 15.336L12.8125 14.5404ZM13.5369 14.9748L14.0143 14.1789L14.0144 14.179L13.5369 14.9748ZM16.5348 16.7735L17.0123 15.9777L17.0127 15.9779L16.5348 16.7735ZM16.6246 17.1328L17.4205 17.6102L17.4199 17.6111L16.6246 17.1328ZM16.2652 17.2225L15.7883 18.0187L15.7878 18.0184L16.2652 17.2225ZM13.2325 15.403L12.7551 16.1989L12.7542 16.1983L13.2325 15.403ZM12.5992 15.5614L13.3948 16.0393L13.3948 16.0393L12.5992 15.5614ZM12.5467 15.9109L11.6463 16.136L11.6458 16.1337L12.5467 15.9109ZM12.7576 16.1948L12.2802 16.9906L12.2794 16.9902L12.7576 16.1948ZM13.5012 16.6408L13.9786 15.845L13.9786 15.845L13.5012 16.6408ZM15.7903 18.0143L16.2678 17.2184L16.2681 17.2186L15.7903 18.0143ZM15.88 18.3736L16.6759 18.851L16.6754 18.8519L15.88 18.3736ZM15.5207 18.4633L15.9982 17.6675L15.9992 17.668L15.5207 18.4633ZM13.2316 17.0899L13.7087 16.2938L13.709 16.294L13.2316 17.0899ZM12.8821 17.0379L12.657 16.1375L12.657 16.1375L12.8821 17.0379ZM12.5982 17.2483L11.8021 16.7713L11.8024 16.7708L12.5982 17.2483ZM12.5457 17.5977L11.6454 17.8228L11.6449 17.8208L12.5457 17.5977ZM12.7566 17.8816L12.2792 18.6775L12.2784 18.677L12.7566 17.8816ZM17.3973 20.6655L17.8748 19.8697L17.8748 19.8697L17.3973 20.6655ZM19.8418 21.1058L20.0275 22.0152L20.0274 22.0152L19.8418 21.1058ZM21.7359 19.7957L20.94 19.3183L20.9402 19.318L21.7359 19.7957ZM21.4832 16.4671L21.3913 15.5436L21.8838 15.4946L22.199 15.8763L21.4832 16.4671ZM22.9813 20.5421C22.3577 21.582 21.3355 22.2823 20.1327 22.528L19.7612 20.7094C20.4788 20.5628 21.0462 20.1597 21.3893 19.5876L22.9813 20.5421ZM20.1324 22.5281C18.9438 22.7704 17.7075 22.5439 16.651 21.9104L17.6055 20.3184C18.2814 20.7237 19.0469 20.855 19.7616 20.7093L20.1324 22.5281ZM16.6508 21.9103L12.0101 19.1263L12.965 17.5346L17.6057 20.3185L16.6508 21.9103ZM12.0101 19.1263C11.5737 18.8645 11.2616 18.4444 11.1377 17.9497L12.9384 17.499C12.9409 17.5091 12.9444 17.5153 12.9475 17.5195C12.9506 17.5237 12.9557 17.529 12.965 17.5346L12.0101 19.1263ZM11.1374 17.9485C11.0145 17.4544 11.0923 16.9374 11.3536 16.5016L12.9456 17.4561C12.94 17.4653 12.9379 17.4726 12.9371 17.4779C12.9364 17.4833 12.9362 17.4904 12.9387 17.5002L11.1374 17.9485ZM11.3533 16.502C11.5254 16.2146 11.7606 15.9992 12.013 15.8481L12.9663 17.4408C12.955 17.4475 12.949 17.4528 12.9466 17.4551C12.9444 17.4573 12.9448 17.4574 12.9458 17.4556L11.3533 16.502ZM11.9978 17.4315L11.9965 17.4306L12.9803 15.8566L12.9816 15.8574L11.9978 17.4315ZM12.011 17.4395C11.5747 17.1778 11.2621 16.7576 11.1387 16.2623L12.9397 15.8133C12.9421 15.8227 12.9454 15.8286 12.9484 15.8327C12.9514 15.8368 12.9565 15.8422 12.9658 15.8477L12.011 17.4395ZM11.139 16.2634C11.0149 15.7683 11.0929 15.2506 11.3544 14.8145L12.9464 15.7689C12.9407 15.7783 12.9387 15.7856 12.938 15.7907C12.9372 15.7958 12.9371 15.8027 12.9395 15.8122L11.139 16.2634ZM11.355 14.8135C11.5263 14.5285 11.7604 14.3076 12.022 14.1532L12.9653 15.7518C12.9593 15.7554 12.9552 15.7587 12.9525 15.7614C12.9499 15.7639 12.9478 15.7665 12.9458 15.7698L11.355 14.8135ZM11.9676 15.7172C11.5927 15.4593 11.3101 15.0739 11.1938 14.6085L12.9945 14.1584C12.9956 14.1628 12.9971 14.1659 12.9995 14.1693C13.0021 14.173 13.0079 14.1798 13.0196 14.1879L11.9676 15.7172ZM11.1939 14.609C11.0699 14.1139 11.1477 13.5962 11.4096 13.1599L13.0011 14.1153C12.9956 14.1245 12.9936 14.1314 12.9929 14.1364C12.9921 14.1414 12.992 14.1482 12.9944 14.158L11.1939 14.609ZM11.4092 13.1606C11.6711 12.7234 12.0919 12.4116 12.5861 12.288L13.0362 14.0888C13.0263 14.0913 13.0201 14.0948 13.016 14.0978C13.0119 14.1009 13.0068 14.1058 13.0015 14.1146L11.4092 13.1606ZM12.5852 12.2883C12.7389 12.2497 12.8957 12.2305 13.0517 12.2305V14.0867C13.0477 14.0867 13.0428 14.0872 13.0371 14.0886L12.5852 12.2883ZM13.0527 12.2305C13.3679 12.2308 13.6686 12.3111 13.9349 12.4504L13.0744 14.0951C13.0656 14.0905 13.0593 14.0884 13.0558 14.0875C13.0524 14.0867 13.0509 14.0867 13.0507 14.0867L13.0527 12.2305ZM12.5776 13.2288C12.5936 12.8913 12.6954 12.5387 12.9126 12.2255L14.4379 13.2832C14.4406 13.2793 14.4331 13.2872 14.4317 13.3166L12.5776 13.2288ZM12.9124 12.2256C13.5003 11.3775 14.64 11.1793 15.4947 11.6922L14.5397 13.2838C14.5126 13.2676 14.4861 13.265 14.4653 13.2691C14.445 13.2732 14.4394 13.281 14.438 13.283L12.9124 12.2256ZM15.4946 11.6921L19.2948 13.9716L18.34 15.5634L14.5398 13.2839L15.4946 11.6921ZM18.006 15.218L17.5161 14.3357L19.139 13.4347L19.6288 14.317L18.006 15.218ZM17.5171 14.3374C17.1665 13.7091 17.1805 12.9391 17.5498 12.3232L19.1417 13.2779C19.1125 13.3266 19.1127 13.3876 19.138 13.433L17.5171 14.3374ZM17.55 12.3228C17.7311 12.0214 17.9881 11.7733 18.2934 11.6021L19.2013 13.2211C19.175 13.2358 19.1546 13.2564 19.1414 13.2783L17.55 12.3228ZM18.2979 11.5996C18.5756 11.4459 18.8784 11.3723 19.1768 11.3723V13.2285C19.18 13.2285 19.1837 13.2281 19.1876 13.2271C19.1916 13.2261 19.1948 13.2247 19.1968 13.2236L18.2979 11.5996ZM19.1773 11.3723C19.8116 11.3726 20.4344 11.7072 20.767 12.3082L19.143 13.2071C19.1444 13.2097 19.1469 13.2132 19.1503 13.2166C19.1536 13.2199 19.1569 13.2224 19.1599 13.2241C19.1651 13.2271 19.1703 13.2285 19.1763 13.2285L19.1773 11.3723ZM20.7665 12.3072C21.3306 13.3238 22.3928 15.2364 22.4665 15.3683L20.8466 16.2744C20.7708 16.139 19.7063 14.2221 19.1435 13.208L20.7665 12.3072ZM22.4212 15.2953C22.4343 15.3144 22.4801 15.3801 22.5209 15.4381L21.0025 16.5057C20.9609 16.4466 20.9106 16.3746 20.8919 16.3474L22.4212 15.2953ZM22.5202 15.4371C22.5394 15.4643 22.5644 15.4964 22.6014 15.541L21.1725 16.7258C21.1219 16.6648 21.0623 16.5906 21.0031 16.5067L22.5202 15.4371ZM22.6029 15.5428C23.8008 16.995 23.9492 18.929 22.9811 20.5424L21.3894 19.5873C21.9514 18.6509 21.8709 17.5723 21.171 16.724L22.6029 15.5428ZM21.8858 19.1864L21.8858 19.1864L22.4848 20.9433L22.4847 20.9433L21.8858 19.1864ZM20.7674 17.0582C20.7087 16.9872 20.64 16.9014 20.5732 16.806L22.0929 15.7403C22.1192 15.7778 22.1528 15.8209 22.1985 15.8761L20.7674 17.0582ZM20.5744 16.8078C20.516 16.7249 20.4532 16.6369 20.4115 16.5679C20.3836 16.5217 20.3463 16.4543 20.3148 16.3684C20.2841 16.2848 20.2704 16.2132 20.2675 16.1984L22.0867 15.83C22.0891 15.8416 22.0799 15.7903 22.0573 15.7288C22.0339 15.665 22.0083 15.6214 22.0004 15.6082C21.9966 15.602 21.9951 15.5999 21.9981 15.6044C22.0008 15.6086 22.0058 15.6159 22.0141 15.628C22.0314 15.653 22.0552 15.6868 22.0917 15.7385L20.5744 16.8078ZM20.3828 16.4943C20.2055 16.201 19.7882 15.4492 18.6852 13.4621L20.3081 12.5613C21.4266 14.5763 21.8174 15.2794 21.9714 15.5341L20.3828 16.4943ZM18.685 13.4618C18.8353 13.7328 19.1774 13.8325 19.4504 13.6817L18.5527 12.057C19.1783 11.7113 19.9632 11.9393 20.3083 12.5615L18.685 13.4618ZM19.4547 13.6793C19.5093 13.6487 19.5578 13.6018 19.5903 13.5476L17.9983 12.5931C18.1324 12.3694 18.3203 12.187 18.5484 12.0594L19.4547 13.6793ZM19.5902 13.5478C19.6566 13.437 19.6611 13.2969 19.595 13.1783L17.9743 14.0832C17.7136 13.6163 17.726 13.0472 17.9984 12.593L19.5902 13.5478ZM19.5961 13.1804L20.5601 14.9172L18.9371 15.818L17.9731 14.0811L19.5961 13.1804ZM20.5599 14.917C20.8212 15.3875 20.7344 15.9752 20.3471 16.3499L19.0566 15.0157C18.8394 15.2257 18.791 15.555 18.9372 15.8182L20.5599 14.917ZM20.3484 16.3486C19.9579 16.7278 19.3676 16.7885 18.9105 16.5167L19.8595 14.9214C19.6064 14.7709 19.2758 14.8028 19.0553 15.017L20.3484 16.3486ZM18.9075 16.5149L14.2702 13.7329L15.2251 12.1412L19.8624 14.9232L18.9075 16.5149ZM14.2705 13.7331C14.361 13.7874 14.4633 13.8032 14.5592 13.786C14.6552 13.7688 14.7789 13.7106 14.8688 13.5809L13.3428 12.5241C13.7895 11.879 14.6389 11.7898 15.2248 12.141L14.2705 13.7331ZM14.8686 13.5811C14.9411 13.4766 14.9691 13.3367 14.9365 13.2054L13.135 13.6529C13.0375 13.2602 13.115 12.8528 13.343 12.5239L14.8686 13.5811ZM14.9361 13.2041C14.9058 13.0825 14.8272 12.9789 14.724 12.917L13.7693 14.5088C13.4539 14.3197 13.2255 14.0146 13.1354 13.6543L14.9361 13.2041ZM14.6618 12.8828C14.7456 12.9248 14.8073 12.9715 14.8464 13.0045C14.8656 13.0208 14.8804 13.0347 14.8894 13.0433C14.894 13.0477 14.8976 13.0513 14.8998 13.0535C14.9009 13.0546 14.9019 13.0555 14.9024 13.0561C14.9027 13.0563 14.9029 13.0566 14.9031 13.0567C14.9031 13.0568 14.9032 13.0568 14.9032 13.0569C14.9032 13.0569 14.9033 13.0569 14.9033 13.0569C14.9033 13.0569 14.9033 13.0569 14.9033 13.0569C14.9033 13.0569 14.9033 13.0569 14.9033 13.0569C14.9036 13.0572 14.9019 13.0555 14.8999 13.0536C14.8977 13.0514 14.8941 13.0479 14.8896 13.0435C14.8807 13.035 14.8659 13.0211 14.8467 13.0049C14.8078 12.972 14.7463 12.9253 14.6626 12.8835L13.8323 14.5436C13.7485 14.5017 13.6868 14.4549 13.6478 14.4219C13.6286 14.4057 13.6137 14.3917 13.6047 14.3831C13.6002 14.3788 13.5965 14.3752 13.5943 14.373C13.5932 14.3719 13.5923 14.371 13.5917 14.3704C13.5914 14.3701 13.5912 14.3699 13.5911 14.3697C13.591 14.3697 13.5909 14.3696 13.5909 14.3696C13.5909 14.3696 13.5909 14.3695 13.5909 14.3695C13.5908 14.3695 13.5908 14.3695 13.5908 14.3695C13.5908 14.3695 13.5908 14.3695 13.5908 14.3695C13.5905 14.3692 13.5922 14.3709 13.5942 14.3729C13.5964 14.375 13.6 14.3786 13.6045 14.3829C13.6135 14.3915 13.6283 14.4054 13.6474 14.4215C13.6863 14.4545 13.7478 14.5011 13.8315 14.543L14.6618 12.8828ZM14.7249 12.9177L17.757 14.7367L16.8021 16.3284L13.77 14.5094L14.7249 12.9177ZM17.7573 14.7369C18.3207 15.0752 18.5031 15.8059 18.1652 16.3692L16.5733 15.4145C16.3844 15.7296 16.4863 16.1388 16.8017 16.3282L17.7573 14.7369ZM18.1646 16.3701C17.8271 16.9314 17.0974 17.1165 16.5323 16.7773L17.4876 15.1858C17.1711 14.9959 16.7625 15.0999 16.5739 15.4136L18.1646 16.3701ZM16.5325 16.7774L12.81 14.5444L13.7649 12.9526L17.4874 15.1857L16.5325 16.7774ZM12.8103 14.5445C12.9146 14.607 13.0431 14.6271 13.1644 14.5966L12.7119 12.7964C13.072 12.7059 13.4491 12.7634 13.7646 12.9524L12.8103 14.5445ZM13.1627 14.597C13.2832 14.567 13.388 14.4887 13.4508 14.3837L11.8578 13.4308C12.0475 13.1136 12.3537 12.8857 12.7137 12.796L13.1627 14.597ZM13.4496 14.3856C13.5133 14.2797 13.5319 14.1515 13.5028 14.0338L11.7009 14.4793C11.6127 14.1228 11.668 13.7463 11.859 13.4288L13.4496 14.3856ZM13.5022 14.0314C13.472 13.9105 13.3939 13.807 13.2904 13.7448L12.3347 15.336C12.0193 15.1466 11.7914 14.8413 11.7014 14.4816L13.5022 14.0314ZM13.2899 13.7445L14.0143 14.1789L13.0596 15.7708L12.3352 15.3363L13.2899 13.7445ZM14.0144 14.179L17.0123 15.9777L16.0574 17.5694L13.0594 15.7707L14.0144 14.179ZM17.0127 15.9779C17.5761 16.3162 17.7584 17.0468 17.4205 17.6102L15.8286 16.6555C15.6397 16.9706 15.7416 17.3797 16.057 17.5692L17.0127 15.9779ZM17.4199 17.6111C17.0819 18.1733 16.3522 18.3565 15.7883 18.0187L16.7421 16.4263C16.4269 16.2375 16.0183 16.34 15.8292 16.6546L17.4199 17.6111ZM15.7878 18.0184L12.7551 16.1989L13.71 14.6072L16.7427 16.4267L15.7878 18.0184ZM12.7542 16.1983C12.977 16.3324 13.2629 16.2589 13.3948 16.0393L11.8036 15.0836C12.1979 14.4271 13.0518 14.2113 13.7109 14.6077L12.7542 16.1983ZM13.3948 16.0393C13.4581 15.934 13.4768 15.8061 13.4477 15.6882L11.6458 16.1337C11.5576 15.777 11.6131 15.4008 11.8036 15.0836L13.3948 16.0393ZM13.4471 15.6858C13.4167 15.5641 13.3382 15.4609 13.2358 15.3994L12.2794 16.9902C11.9649 16.8011 11.7365 16.4965 11.6463 16.136L13.4471 15.6858ZM13.2351 15.3989L13.9786 15.845L13.0237 17.4367L12.2802 16.9906L13.2351 15.3989ZM13.9786 15.845L16.2678 17.2184L15.3128 18.8101L13.0237 17.4367L13.9786 15.845ZM16.2681 17.2186C16.8315 17.557 17.0138 18.2876 16.6759 18.851L15.0841 17.8962C14.8951 18.2113 14.9971 18.6205 15.3125 18.8099L16.2681 17.2186ZM16.6754 18.8519C16.3384 19.4123 15.6086 19.5993 15.0423 19.2586L15.9992 17.668C15.6815 17.4769 15.2727 17.5825 15.0847 17.8953L16.6754 18.8519ZM15.0432 19.2591L12.7541 17.8857L13.709 16.294L15.9982 17.6675L15.0432 19.2591ZM12.7544 17.8859C12.8589 17.9486 12.9876 17.9681 13.1072 17.9383L12.657 16.1375C13.0167 16.0476 13.3929 16.1046 13.7087 16.2938L12.7544 17.8859ZM13.1072 17.9382C13.2266 17.9084 13.3309 17.8311 13.3941 17.7258L11.8024 16.7708C11.9925 16.4539 12.2988 16.227 12.657 16.1375L13.1072 17.9382ZM13.3944 17.7252C13.4567 17.6211 13.4761 17.4938 13.4466 17.3747L11.6449 17.8208C11.5563 17.4632 11.6128 17.0873 11.8021 16.7713L13.3944 17.7252ZM13.4461 17.3726C13.4157 17.251 13.3372 17.1477 13.2349 17.0862L12.2784 18.677C11.9639 18.4879 11.7355 18.1833 11.6454 17.8228L13.4461 17.3726ZM13.2341 17.0857L17.8748 19.8697L16.9199 21.4614L12.2792 18.6775L13.2341 17.0857ZM17.8748 19.8697C18.4388 20.2081 19.0719 20.3157 19.6563 20.1965L20.0274 22.0152C18.9659 22.2318 17.862 22.0266 16.9199 21.4614L17.8748 19.8697ZM19.6561 20.1965C20.2301 20.0793 20.6743 19.7613 20.94 19.3183L22.5318 20.2731C21.9835 21.1873 21.0823 21.7998 20.0275 22.0152L19.6561 20.1965ZM20.9402 19.318C21.3947 18.5608 21.3341 17.7444 20.7675 17.058L22.199 15.8763C23.2641 17.1667 23.3927 18.839 22.5317 20.2733L20.9402 19.318ZM21.5752 17.3907L21.5749 17.3907L21.391 15.5436L21.3913 15.5436L21.5752 17.3907Z" fill="#4CAF4F" mask="url(#path-4-inside-2_211_2339)"/>
</svg>
