<svg width="46" height="40" viewBox="0 0 46 40" fill="none" xmlns="http://www.w3.org/2000/svg">
<path d="M45.7925 26.6503C45.7925 33.57 40.1829 39.1796 33.2632 39.1796L14.4694 39.1796C12.5472 39.1796 10.989 37.6214 10.989 35.6992L10.989 12.0329C10.989 8.18857 14.1054 5.07216 17.9497 5.07216L42.3121 5.07216C44.2343 5.07216 45.7925 6.63037 45.7925 8.55251L45.7925 26.6503Z" fill="#E8F5E9"/>
<path d="M19.2836 13.4326C19.0665 13.4326 18.8899 13.2563 18.8899 13.0388V12.3697C18.8899 12.1525 19.0662 11.976 19.2836 11.976C19.5008 11.976 19.6774 12.1522 19.6774 12.3697V13.0388C19.6774 13.2563 19.5008 13.4326 19.2836 13.4326Z" fill="#103E13"/>
<path d="M17.6281 13.4326C17.4109 13.4326 17.2344 13.2563 17.2344 13.0388V12.3697C17.2344 12.1525 17.4107 11.976 17.6281 11.976C17.8453 11.976 18.0219 12.1522 18.0219 12.3697V13.0388C18.0216 13.2563 17.8456 13.4326 17.6281 13.4326Z" fill="#103E13"/>
<path d="M15.9729 13.4326C15.7557 13.4326 15.5791 13.2563 15.5791 13.0388V12.3697C15.5791 12.1525 15.7554 11.976 15.9729 11.976C16.19 11.976 16.3666 12.1522 16.3666 12.3697V13.0388C16.3666 13.2563 16.1903 13.4326 15.9729 13.4326Z" fill="#103E13"/>
<path d="M19.2836 16.169C19.0665 16.169 18.8899 15.9927 18.8899 15.7753V15.1064C18.8899 14.8892 19.0662 14.7126 19.2836 14.7126C19.5008 14.7126 19.6774 14.8889 19.6774 15.1064V15.7753C19.6774 15.9927 19.5008 16.169 19.2836 16.169Z" fill="#103E13"/>
<path d="M17.6281 16.169C17.4109 16.169 17.2344 15.9927 17.2344 15.7753V15.1064C17.2344 14.8892 17.4107 14.7126 17.6281 14.7126C17.8453 14.7126 18.0219 14.8889 18.0219 15.1064V15.7753C18.0216 15.9927 17.8456 16.169 17.6281 16.169Z" fill="#103E13"/>
<path d="M15.9729 16.169C15.7557 16.169 15.5791 15.9927 15.5791 15.7753V15.1064C15.5791 14.8892 15.7554 14.7126 15.9729 14.7126C16.19 14.7126 16.3666 14.8889 16.3666 15.1064V15.7753C16.3666 15.9927 16.1903 16.169 15.9729 16.169Z" fill="#103E13"/>
<path d="M19.2836 18.9054C19.0665 18.9054 18.8899 18.7291 18.8899 18.5116V17.8425C18.8899 17.6253 19.0662 17.4487 19.2836 17.4487C19.5008 17.4487 19.6774 17.625 19.6774 17.8425V18.5116C19.6774 18.7291 19.5008 18.9054 19.2836 18.9054Z" fill="#103E13"/>
<path d="M17.6281 18.9054C17.4109 18.9054 17.2344 18.7291 17.2344 18.5116V17.8425C17.2344 17.6253 17.4107 17.4487 17.6281 17.4487C17.8453 17.4487 18.0219 17.625 18.0219 17.8425V18.5116C18.0216 18.7291 17.8456 18.9054 17.6281 18.9054Z" fill="#103E13"/>
<path d="M15.9729 18.9054C15.7557 18.9054 15.5791 18.7291 15.5791 18.5116V17.8425C15.5791 17.6253 15.7554 17.4487 15.9729 17.4487C16.19 17.4487 16.3666 17.625 16.3666 17.8425V18.5116C16.3666 18.7291 16.1903 18.9054 15.9729 18.9054Z" fill="#103E13"/>
<path d="M19.2836 21.6412C19.0665 21.6412 18.8899 21.4649 18.8899 21.2475V20.5783C18.8899 20.3611 19.0662 20.1846 19.2836 20.1846C19.5008 20.1846 19.6774 20.3608 19.6774 20.5783V21.2475C19.6774 21.4649 19.5008 21.6412 19.2836 21.6412Z" fill="#103E13"/>
<path d="M17.6281 21.6412C17.4109 21.6412 17.2344 21.4649 17.2344 21.2475V20.5783C17.2344 20.3611 17.4107 20.1846 17.6281 20.1846C17.8453 20.1846 18.0219 20.3608 18.0219 20.5783V21.2475C18.0216 21.4649 17.8456 21.6412 17.6281 21.6412Z" fill="#103E13"/>
<path d="M15.9729 21.6412C15.7557 21.6412 15.5791 21.4649 15.5791 21.2475V20.5783C15.5791 20.3611 15.7554 20.1846 15.9729 20.1846C16.19 20.1846 16.3666 20.3608 16.3666 20.5783V21.2475C16.3666 21.4649 16.1903 21.6412 15.9729 21.6412Z" fill="#103E13"/>
<path d="M19.2836 24.3776C19.0665 24.3776 18.8899 24.2014 18.8899 23.9839V23.315C18.8899 23.0978 19.0662 22.9213 19.2836 22.9213C19.5008 22.9213 19.6774 23.0975 19.6774 23.315V23.9839C19.6774 24.2011 19.5008 24.3776 19.2836 24.3776Z" fill="#103E13"/>
<path d="M17.6281 24.3776C17.4109 24.3776 17.2344 24.2014 17.2344 23.9839V23.315C17.2344 23.0978 17.4107 22.9213 17.6281 22.9213C17.8453 22.9213 18.0219 23.0975 18.0219 23.315V23.9839C18.0216 24.2011 17.8456 24.3776 17.6281 24.3776Z" fill="#103E13"/>
<path d="M15.9729 24.3776C15.7557 24.3776 15.5791 24.2014 15.5791 23.9839L15.5794 23.315C15.5794 23.0978 15.7557 22.9213 15.9731 22.9213C16.1903 22.9213 16.3669 23.0975 16.3669 23.315V23.9839C16.3666 24.2011 16.1903 24.3776 15.9729 24.3776Z" fill="#103E13"/>
<path d="M4.7247 27.1008C4.7247 27.318 4.90097 27.4946 5.11844 27.4946H29.0965C29.3137 27.4946 29.4902 27.3183 29.4902 27.1008C29.4902 26.8836 29.3139 26.7071 29.0965 26.7071H28.3686V15.402C28.3686 15.1848 28.1923 15.0083 27.9749 15.0083L21.5462 15.0085V6.85817C21.5462 6.72033 21.4742 6.59293 21.3567 6.52153C21.2394 6.44987 21.0928 6.44547 20.9709 6.5089L13.6619 10.3143C13.5315 10.3821 13.4502 10.5167 13.4502 10.6636V17.7827H6.37675C6.15956 17.7827 5.983 17.959 5.983 18.1765V26.7071H5.11757C4.90038 26.7069 4.72437 26.8831 4.72437 27.1006L4.7247 27.1008ZM21.5463 20.972H27.5815V26.7074L21.5463 26.7071V20.972ZM21.5463 18.2358H27.5815V20.1848L21.5463 20.1845V18.2358ZM21.5463 15.7956H27.5815V17.4489H21.5463V15.7956ZM14.2373 10.9027L20.7585 7.50719V26.7068H14.2373V10.9027ZM8.71693 23.5623C8.71693 22.7451 9.36439 22.0801 10.1604 22.0801C10.9564 22.0801 11.6041 22.7448 11.6041 23.5623V26.7073H8.71693V23.5623ZM6.77048 18.5701H13.4501V26.7071H12.3916V23.5621C12.3916 22.3108 11.3911 21.2927 10.1604 21.2927C8.93027 21.2927 7.92973 22.3106 7.92973 23.5621V26.7071H6.77048V18.5701Z" fill="#103E13"/>
</svg>
