<svg width="30" height="24" viewBox="0 0 30 24" fill="none" xmlns="http://www.w3.org/2000/svg">
<path d="M5.39478 1.16504H25.2327C26.3863 1.16504 27.493 1.62376 28.3088 2.43945C29.1246 3.25526 29.5832 4.3619 29.5833 5.51562V19.0889C29.5833 20.2427 29.1247 21.3492 28.3088 22.165C27.493 22.9809 26.3865 23.4395 25.2327 23.4395H5.39478C4.24105 23.4394 3.13441 22.9809 2.3186 22.165C1.50292 21.3492 1.04419 20.2425 1.04419 19.0889V5.51562C1.04425 4.3619 1.50279 3.25526 2.3186 2.43945C3.13441 1.62364 4.24105 1.1651 5.39478 1.16504ZM2.43677 19.0889C2.43677 19.8733 2.74837 20.6259 3.30298 21.1807C3.85771 21.7354 4.61027 22.0478 5.39478 22.0479H25.2327C26.0173 22.0479 26.7697 21.7355 27.3245 21.1807C27.8792 20.6259 28.1917 19.8734 28.1917 19.0889V8.82227H2.43677V19.0889ZM20.5344 15.7832H23.6672C23.8517 15.7833 24.029 15.8559 24.1594 15.9863C24.2899 16.1168 24.3624 16.2941 24.3625 16.4785C24.3625 16.6629 24.2897 16.8402 24.1594 16.9707C24.029 17.1011 23.8517 17.1747 23.6672 17.1748H20.5344C20.3498 17.1748 20.1728 17.1012 20.0422 16.9707C19.9119 16.8402 19.8381 16.663 19.8381 16.4785C19.8382 16.2941 19.9118 16.1168 20.0422 15.9863C20.1727 15.8559 20.3499 15.7832 20.5344 15.7832ZM5.39478 2.55762C4.61027 2.55768 3.85771 2.86909 3.30298 3.42383C2.74824 3.97856 2.43683 4.73112 2.43677 5.51562V7.42969H28.1917V5.51562C28.1916 4.73112 27.8792 3.97856 27.3245 3.42383C26.7697 2.86921 26.0171 2.55762 25.2327 2.55762H5.39478Z" fill="#4CAF4F" stroke="#4CAF4F" stroke-width="0.696069"/>
</svg>
