<svg width="46" height="40" viewBox="0 0 46 40" fill="none" xmlns="http://www.w3.org/2000/svg">
<path d="M45.9187 26.6503C45.9187 33.57 40.3092 39.1796 33.3894 39.1796L14.5956 39.1796C12.6734 39.1796 11.1152 37.6214 11.1152 35.6992L11.1152 12.0329C11.1152 8.18857 14.2316 5.07216 18.0759 5.07216L42.4384 5.07216C44.3605 5.07216 45.9187 6.63037 45.9187 8.55251L45.9187 26.6503Z" fill="#E8F5E9"/>
<path d="M17.3728 7.1604C14.8869 7.1604 12.8632 9.20259 12.8632 11.699C12.8632 13.2783 13.6742 14.6727 14.8988 15.4855C13.4197 15.98 12.1399 16.9043 11.2013 18.1135C10.6823 17.7143 10.1024 17.3933 9.47729 17.1633C10.4252 16.4595 11.0447 15.329 11.0447 14.0584C11.0447 11.9412 9.33233 10.2079 7.22789 10.2079C5.12346 10.2079 3.41107 11.9412 3.41107 14.0584C3.41107 15.3297 4.03106 16.4608 4.97981 17.1645C2.46799 18.0914 0.674072 20.5182 0.674072 23.3741V25.3803C0.674329 25.5333 0.735505 25.6798 0.843975 25.7875C0.952444 25.8954 1.09922 25.9556 1.25216 25.9551H10.0539C10.0753 25.9574 10.0966 25.9587 10.1179 25.9584H24.6281C24.6494 25.9587 24.671 25.9574 24.6921 25.9551H33.4945C33.8109 25.9538 34.0672 25.697 34.068 25.3803V23.3741C34.068 20.5182 32.2772 18.0914 29.7667 17.1643C30.7154 16.4608 31.3354 15.3295 31.3354 14.0582C31.3354 11.9409 29.623 10.2077 27.5186 10.2077C25.4142 10.2077 23.7017 11.9409 23.7017 14.0582C23.7017 15.3288 24.3215 16.4594 25.2694 17.163C24.643 17.3936 24.0629 17.7156 23.5432 18.1158C22.605 16.9059 21.3269 15.9803 19.8479 15.4855C21.0722 14.6727 21.8835 13.2783 21.8835 11.699C21.8835 9.20259 19.8587 7.1604 17.3729 7.1604H17.3728ZM17.3728 8.31195C19.232 8.31195 20.7307 9.8208 20.7307 11.699C20.7307 13.5625 19.2553 15.0567 17.4167 15.0807C17.4021 15.0807 17.3877 15.0786 17.3728 15.0786C17.3579 15.0786 17.3437 15.0807 17.3288 15.0807C15.4902 15.057 14.0158 13.5626 14.0158 11.699C14.0158 9.82054 15.5133 8.31195 17.3725 8.31195H17.3728ZM7.22796 11.3594C8.70312 11.3594 9.89323 12.5567 9.89323 14.0584C9.89323 15.55 8.71852 16.7421 7.25724 16.7583C7.24747 16.7583 7.23796 16.7573 7.22794 16.7573C7.21817 16.7573 7.20866 16.7583 7.19864 16.7583C5.73735 16.7421 4.56264 15.5497 4.56264 14.0584C4.56264 12.5568 5.75275 11.3594 7.22792 11.3594H7.22796ZM27.5182 11.3594C28.9934 11.3594 30.1835 12.5567 30.1835 14.0584C30.1835 15.55 29.0088 16.7421 27.5475 16.7583C27.5377 16.7583 27.5282 16.7573 27.5182 16.7573C27.5084 16.7573 27.4989 16.7583 27.4889 16.7583C26.0276 16.7421 24.8529 15.5497 24.8529 14.0584C24.8529 12.5568 26.043 11.3594 27.5182 11.3594H27.5182ZM17.3287 16.2322C17.3433 16.2324 17.3577 16.2342 17.3726 16.2342C17.3873 16.2342 17.4017 16.2322 17.4166 16.2322C21.1038 16.2558 24.0548 19.2321 24.0548 22.9579L24.0545 24.8065H10.6913V22.9579C10.6913 19.2318 13.6414 16.2559 17.3282 16.2322H17.3287ZM7.18387 17.9112C7.19852 17.9114 7.21292 17.9132 7.22782 17.9132C7.24273 17.9132 7.25687 17.9112 7.27178 17.9112C8.51894 17.9212 9.65713 18.3512 10.5634 19.0707C9.91491 20.2182 9.53987 21.5426 9.53987 22.9582V24.8024H1.82516V23.3741C1.82516 20.3461 4.2059 17.9348 7.18373 17.9109L7.18387 17.9112ZM27.4741 17.9112C27.489 17.9114 27.5032 17.9132 27.5181 17.9132C27.533 17.9132 27.5471 17.9112 27.562 17.9112C30.5399 17.9348 32.9206 20.3464 32.9206 23.3743V24.8024H25.202L25.2017 22.9582C25.2017 21.5434 24.8277 20.2199 24.1805 19.0727C25.087 18.3523 26.226 17.9212 27.4742 17.9112H27.4741Z" fill="#103E13"/>
</svg>
