<svg width="34" height="34" viewBox="0 0 34 34" fill="none" xmlns="http://www.w3.org/2000/svg">
<path d="M28.0713 29.8318V27.0475C28.0713 25.5706 27.4847 24.1542 26.4403 23.1099C25.396 22.0656 23.9797 21.4789 22.5028 21.4789H21.1106C20.7414 21.4789 20.3873 21.3323 20.1263 21.0712C19.8652 20.8101 19.7185 20.456 19.7185 20.0868V13.1261C19.7185 12.3877 19.4252 11.6795 18.903 11.1573C18.3809 10.6352 17.6727 10.3418 16.9342 10.3418C16.1958 10.3418 15.4876 10.6352 14.9654 11.1573C14.4433 11.6795 14.15 12.3877 14.15 13.1261V25.6553L10.8088 21.2005C10.5495 20.8547 10.2132 20.574 9.82656 20.3807C9.43995 20.1874 9.01364 20.0868 8.5814 20.0868H7.97721C6.77301 20.0868 5.79712 21.0627 5.79712 22.2669C5.79712 22.6622 5.90431 23.0506 6.10757 23.3889L9.97354 29.8318M16.9342 6.16539V4.77325V6.16539ZM25.2871 14.5182H26.6792H25.2871ZM7.18926 14.5182H8.5814H7.18926ZM10.451 8.03504L9.4668 7.05079L10.451 8.03504ZM23.4174 8.03504L24.4017 7.05079L23.4174 8.03504Z" fill="#4CAF4F"/>
<path d="M28.0713 29.8318V27.0475C28.0713 25.5706 27.4847 24.1542 26.4403 23.1099C25.396 22.0656 23.9797 21.4789 22.5028 21.4789H21.1106C20.7414 21.4789 20.3873 21.3323 20.1263 21.0712C19.8652 20.8101 19.7185 20.456 19.7185 20.0868V13.1261C19.7185 12.3877 19.4252 11.6795 18.903 11.1573C18.3809 10.6352 17.6727 10.3418 16.9342 10.3418V10.3418C16.1958 10.3418 15.4876 10.6352 14.9654 11.1573C14.4433 11.6795 14.15 12.3877 14.15 13.1261V25.6553L10.8088 21.2005C10.5495 20.8547 10.2132 20.574 9.82656 20.3807C9.43995 20.1874 9.01364 20.0868 8.5814 20.0868H7.97721C6.77301 20.0868 5.79712 21.0627 5.79712 22.2669C5.79712 22.6622 5.90431 23.0506 6.10757 23.3889L9.97354 29.8318M16.9342 6.16539V4.77325M25.2871 14.5182H26.6792M7.18926 14.5182H8.5814M10.451 8.03504L9.4668 7.05079M23.4174 8.03504L24.4017 7.05079" stroke="#4CAF4F" stroke-width="1.39214" stroke-linecap="round" stroke-linejoin="round"/>
</svg>
