<svg width="34" height="22" viewBox="0 0 34 22" fill="none" xmlns="http://www.w3.org/2000/svg">
<path d="M11.7141 0.628906C13.3558 0.629006 14.9579 1.13401 16.303 2.0752C17.6482 3.01651 18.6711 4.34911 19.2336 5.8916C19.7961 7.43402 19.8709 9.11199 19.4475 10.6982C19.0241 12.2846 18.1229 13.7028 16.8665 14.7598L16.4436 15.1152L16.9475 15.3428C19.017 16.2793 20.7977 17.7535 22.1047 19.6113L22.1096 19.6182L22.1155 19.625C22.217 19.7551 22.2912 19.9049 22.3333 20.0645C22.3753 20.224 22.3838 20.3905 22.3596 20.5537C22.3354 20.7169 22.2782 20.8732 22.1917 21.0137C22.1051 21.1541 21.9915 21.2761 21.8567 21.3711C21.7219 21.466 21.5688 21.5322 21.4075 21.5664C21.2461 21.6005 21.079 21.6015 20.9172 21.5693C20.7554 21.5371 20.6011 21.4723 20.4651 21.3789H20.4661C20.33 21.2855 20.2135 21.1658 20.1252 21.0264L20.1213 21.0195L20.1165 21.0127L19.9348 20.7627C19.0108 19.5273 17.8197 18.5144 16.4485 17.8018C14.9861 17.0417 13.3622 16.6446 11.7141 16.6445C10.0659 16.6445 8.44128 17.0416 6.97876 17.8018C5.51619 18.5619 4.25795 19.6637 3.31079 21.0127L3.30981 21.0137C3.1985 21.1734 3.04993 21.3037 2.8772 21.3936C2.70438 21.4835 2.51243 21.5308 2.31763 21.5303H2.31567C2.06578 21.5311 1.82171 21.4529 1.61841 21.3076L1.61646 21.3066L1.52173 21.2324C1.31025 21.0493 1.16766 20.7975 1.11938 20.5195C1.07113 20.2415 1.12065 19.9566 1.25806 19.7129L1.32251 19.6113C2.62958 17.7535 4.41023 16.2793 6.47974 15.3428L6.98364 15.1152L6.56079 14.7598C5.30436 13.7028 4.40319 12.2846 3.97974 10.6982C3.55637 9.11199 3.63111 7.43402 4.1936 5.8916C4.75613 4.34911 5.77904 3.01651 7.12427 2.0752C8.46949 1.13392 10.0723 0.628906 11.7141 0.628906ZM22.3499 0.638672H22.3518C23.9946 0.633975 25.5991 1.13645 26.9465 2.07617C28.2939 3.01595 29.3189 4.34842 29.8821 5.8916C30.4451 7.43465 30.5193 9.11367 30.094 10.7002C29.6685 12.287 28.7639 13.7043 27.5042 14.7588L27.0793 15.1143L27.5842 15.3428C29.6538 16.2793 31.4344 17.7535 32.7415 19.6113L32.7434 19.6133C32.8362 19.7431 32.9022 19.8904 32.9377 20.0459C32.9733 20.2016 32.9777 20.3632 32.9504 20.5205C32.9231 20.6779 32.8645 20.8283 32.7786 20.9629C32.6926 21.0975 32.5807 21.2137 32.4495 21.3047L32.4456 21.3076C32.2423 21.4529 31.9982 21.5301 31.7483 21.5293C31.5532 21.528 31.3608 21.4807 31.1877 21.3906C31.0145 21.3004 30.8652 21.1701 30.7522 21.0107C29.8032 19.6646 28.5449 18.5657 27.0833 17.8066C25.7126 17.0949 24.2005 16.7012 22.6594 16.6533L22.3508 16.6484L22.2297 16.6426C21.9511 16.6148 21.6893 16.4917 21.4895 16.292C21.2611 16.0636 21.1321 15.7537 21.1321 15.4307C21.1321 15.1076 21.2611 14.7978 21.4895 14.5693C21.7179 14.341 22.0278 14.2129 22.3508 14.2129C23.8276 14.2128 25.2441 13.6253 26.2883 12.5811C27.3324 11.5368 27.9192 10.1203 27.9192 8.64355C27.9191 7.16682 27.3325 5.75028 26.2883 4.70605C25.3092 3.72693 24.0027 3.15023 22.6262 3.08203L22.3508 3.0752C21.8417 3.07426 21.3345 3.14452 20.845 3.28418L20.7239 3.31445C20.6054 3.3373 20.484 3.342 20.3635 3.3291C20.2029 3.31189 20.047 3.26347 19.9055 3.18555C19.7641 3.10769 19.6397 3.00236 19.5393 2.87598C19.4389 2.74943 19.3643 2.60377 19.3206 2.44824C19.2768 2.29273 19.2647 2.13007 19.2844 1.96973C19.3041 1.80944 19.3557 1.6549 19.4358 1.51465C19.5159 1.37435 19.6231 1.2508 19.7512 1.15234C19.8793 1.054 20.0258 0.981732 20.1819 0.94043L20.1877 0.939453C20.8909 0.739261 21.6187 0.637458 22.3499 0.638672ZM12.8 3.18262C11.7199 2.96775 10.5998 3.07755 9.58228 3.49902C8.5649 3.92049 7.69508 4.63419 7.08325 5.5498C6.47143 6.46546 6.14484 7.54231 6.14478 8.64355C6.14478 10.1202 6.73158 11.5368 7.77563 12.5811C8.81994 13.6254 10.2372 14.2129 11.7141 14.2129C12.8151 14.2128 13.8914 13.886 14.8069 13.2744C15.7226 12.6625 16.4372 11.7919 16.8586 10.7744C17.2799 9.75705 17.3899 8.63761 17.175 7.55762C16.9602 6.47746 16.4303 5.48482 15.6516 4.70605C14.8729 3.9273 13.8802 3.3975 12.8 3.18262Z" fill="#4CAF4F" stroke="#4CAF4F" stroke-width="0.696069"/>
</svg>
