<svg width="46" height="40" viewBox="0 0 46 40" fill="none" xmlns="http://www.w3.org/2000/svg">
<path d="M45.6658 26.6503C45.6658 33.57 40.0562 39.1796 33.1365 39.1796L14.3426 39.1796C12.4205 39.1796 10.8623 37.6214 10.8623 35.6992L10.8623 12.0329C10.8623 8.18857 13.9787 5.07216 17.823 5.07216L42.1854 5.07216C44.1076 5.07216 45.6658 6.63037 45.6658 8.55251L45.6658 26.6503Z" fill="#E8F5E9"/>
<path d="M20.128 16.658C19.9604 16.658 19.8048 16.6119 19.6666 16.5378V16.5398C19.6666 16.8035 19.5641 17.0511 19.3781 17.2366C19.1921 17.4225 18.9447 17.525 18.6813 17.525C18.5112 17.525 18.3536 17.4778 18.2139 17.4017C18.1998 17.6429 18.1034 17.8684 17.9313 18.0406C17.7454 18.2266 17.4979 18.3291 17.2343 18.3291C16.7107 18.3291 16.2855 17.9175 16.2548 17.4016C16.0928 17.4891 15.9096 17.535 15.7207 17.5229C15.2056 17.4891 14.8022 17.0441 14.8022 16.5094V12.0778L14.2975 12.952C14.1053 13.2864 13.7456 13.494 13.3582 13.494C13.1694 13.494 12.983 13.4445 12.8178 13.3499C12.6122 13.2306 12.4651 13.0393 12.4039 12.8103C12.3424 12.5812 12.3742 12.3416 12.4931 12.1363C12.4933 12.1363 14.1442 9.27739 14.2449 9.10178C14.2569 9.07537 14.291 8.99879 14.32 8.93352C14.3477 8.8712 14.3715 8.80725 14.3943 8.74296C14.8922 7.3374 16.1249 6.4643 17.6117 6.4643C19.5424 6.4643 21.1131 8.16751 21.1131 10.2611L21.1132 15.6726C21.1132 15.9359 21.0109 16.1834 20.8251 16.3696C20.6391 16.5555 20.3917 16.658 20.128 16.658L20.128 16.658ZM17.6117 6.98784C16.3342 6.98784 15.316 7.70943 14.8878 8.91805C14.8604 8.9948 14.8319 9.07155 14.7986 9.14633C14.702 9.36297 14.702 9.36296 14.6748 9.39412L14.6712 9.391C14.5364 9.64536 14.1359 10.3389 12.9464 12.3983C12.8976 12.4828 12.8846 12.5808 12.9095 12.6746C12.9348 12.7684 12.9953 12.8475 13.0791 12.8959C13.3392 13.0453 13.6954 12.9488 13.8436 12.6905L14.8373 10.9702C14.8966 10.8677 15.0167 10.8174 15.1318 10.8486C15.2463 10.8792 15.3258 10.983 15.3258 11.1014V16.5096C15.3258 16.7647 15.5183 16.985 15.755 17.0005C15.8914 17.0078 16.0187 16.962 16.1143 16.8666C16.2012 16.7796 16.2491 16.6639 16.2491 16.5401V13.0031C16.2491 12.8584 16.3664 12.7412 16.511 12.7412C16.6556 12.7412 16.7729 12.8583 16.7729 13.0031L16.7727 17.344C16.7727 17.5985 16.9799 17.8056 17.2344 17.8056C17.358 17.8056 17.4741 17.7578 17.5612 17.6708C17.6481 17.5838 17.696 17.4677 17.696 17.344V13.0031C17.696 12.8584 17.8131 12.7412 17.9579 12.7412C18.1025 12.7412 18.2198 12.8583 18.2198 13.0031L18.2196 16.4994V16.54C18.2196 16.7944 18.4268 17.0015 18.6814 17.0015C18.8049 17.0015 18.9207 16.9535 19.0083 16.8662C19.0952 16.7795 19.1431 16.6637 19.1431 16.5399V13.0029C19.1431 12.8582 19.2602 12.741 19.405 12.741C19.5496 12.741 19.6669 12.8581 19.6669 13.0029L19.6665 15.6727C19.6665 15.9274 19.8737 16.1345 20.128 16.1345C20.2518 16.1345 20.3676 16.0864 20.4545 15.9997C20.5418 15.9124 20.5895 15.7963 20.5895 15.6727L20.5896 10.2612C20.5896 8.45647 19.2538 6.9879 17.6117 6.9879L17.6117 6.98784Z" fill="#103E13"/>
<path d="M9.83834 20.4192L13.6387 18.1393C14.0969 17.8641 14.6864 17.9811 14.9803 18.4056C15.0876 18.5603 15.1423 18.7405 15.1509 18.924C15.2925 18.8501 15.4467 18.8099 15.6036 18.8099C15.684 18.8099 15.7647 18.8199 15.8444 18.8397C16.0997 18.9035 16.3149 19.0631 16.4502 19.2887C16.5856 19.5147 16.6252 19.7796 16.5614 20.0346C16.5025 20.2706 16.359 20.4692 16.1594 20.6055C16.299 20.6878 16.4193 20.8001 16.505 20.9431C16.6404 21.1691 16.6799 21.4338 16.6163 21.6892C16.5525 21.9442 16.3929 22.1593 16.167 22.295L16.1657 22.2958C16.3028 22.3779 16.421 22.4891 16.5056 22.63C16.6412 22.856 16.6808 23.1208 16.617 23.3761C16.553 23.6313 16.3934 23.8465 16.1678 23.9819L11.5275 26.7657C10.6615 27.2851 9.66028 27.4644 8.7088 27.27C7.7488 27.0739 6.95374 26.5221 6.47032 25.7162C5.70528 24.4411 5.81993 22.9347 6.76895 21.7849C6.81241 21.7325 6.85521 21.679 6.89408 21.6236C6.93524 21.565 6.98329 21.4961 6.99969 21.4725C7.09792 21.2971 8.7008 18.4091 8.70063 18.4095C8.86249 18.1174 9.16588 17.9521 9.47877 17.9522C9.62472 17.9522 9.77281 17.9882 9.90942 18.0639C10.0744 18.1561 10.213 18.2904 10.3099 18.4523C10.5091 18.7843 10.5162 19.1999 10.3286 19.5362L9.83834 20.4192ZM9.86114 18.7215C9.8103 18.6367 9.74044 18.5691 9.655 18.5213C9.47838 18.4235 9.25601 18.4871 9.15877 18.6631C8.01182 20.7294 7.62084 21.4336 7.46996 21.6842L7.4734 21.685C7.46077 21.727 7.46077 21.727 7.32269 21.9243C7.27579 21.991 7.22479 22.0551 7.17281 22.1183C6.35676 23.107 6.262 24.3512 6.91911 25.4468C7.32614 26.1254 7.99884 26.5907 8.81338 26.757C9.63678 26.9244 10.5046 26.7686 11.2579 26.3166L15.8986 23.5327C16.0045 23.4693 16.0793 23.3684 16.1091 23.2489C16.139 23.1295 16.1205 23.0053 16.0568 22.8994C15.926 22.6813 15.6418 22.6096 15.4236 22.741L13.1343 24.1144C13.0103 24.1889 12.8493 24.1489 12.775 24.0247C12.7006 23.9007 12.7407 23.7399 12.8647 23.6654L15.1542 22.292L15.8978 21.8459C16.0037 21.7823 16.0786 21.6814 16.1085 21.5622C16.1383 21.4426 16.1198 21.3183 16.0562 21.2126C15.9251 20.9943 15.6409 20.9233 15.423 21.0542L12.39 22.8737C12.2657 22.9483 12.1051 22.9079 12.0307 22.784C11.9562 22.66 11.9965 22.4991 12.1204 22.4246L15.8428 20.1916C15.9488 20.1279 16.0235 20.0273 16.0534 19.9077C16.0832 19.7883 16.0647 19.6642 16.0012 19.5582C15.9378 19.4525 15.8369 19.3777 15.7174 19.3478C15.5972 19.318 15.4735 19.3365 15.3679 19.3998L14.6788 19.8133C14.6786 19.8133 14.6786 19.8134 14.6785 19.8134H14.6783L11.6454 21.6329C11.5211 21.7077 11.3604 21.6674 11.2861 21.5432C11.2117 21.4192 11.252 21.2584 11.3758 21.1839L14.4089 19.3644C14.5148 19.3008 14.5898 19.1999 14.6196 19.0807C14.6524 18.9498 14.6275 18.816 14.5497 18.7038C14.4149 18.5089 14.1266 18.457 13.908 18.5884L9.27071 21.3704C9.16919 21.4311 9.03915 21.4163 8.95404 21.3341C8.86876 21.2518 8.84957 21.1224 8.90697 21.0189L9.87126 19.2816C9.96801 19.1079 9.96424 18.8934 9.86109 18.7216L9.86114 18.7215Z" fill="#103E13"/>
<path d="M27.998 25.7161C27.5147 26.5221 26.7199 27.0738 25.7597 27.2699C24.8081 27.4639 23.8072 27.285 22.941 26.7656L18.3003 23.9817C18.0745 23.8463 17.9148 23.6311 17.8508 23.3756C17.7873 23.1206 17.827 22.8557 17.9623 22.6301C18.0468 22.489 18.1652 22.3778 18.3024 22.2957L18.3011 22.2949C18.0753 22.1594 17.9156 21.9442 17.852 21.6891C17.788 21.4339 17.8277 21.1689 17.9631 20.9429C18.0504 20.7978 18.1699 20.6843 18.3064 20.6038C18.1083 20.4675 17.9656 20.2696 17.9069 20.0347C17.8429 19.7794 17.8826 19.5145 18.0181 19.2889C18.1534 19.063 18.3687 18.9035 18.6239 18.8397C18.7036 18.8197 18.7844 18.8098 18.8645 18.8098C19.0216 18.81 19.1757 18.8499 19.3174 18.924C19.3261 18.7405 19.3807 18.5602 19.488 18.4056C19.782 17.9814 20.371 17.8639 20.8299 18.1393L24.6301 20.4188L24.1403 19.5365C23.9523 19.1996 23.9592 18.7841 24.1585 18.4518C24.2556 18.2901 24.3943 18.1558 24.5601 18.0628C24.6964 17.9874 24.844 17.9516 24.9896 17.9516C25.3023 17.9518 25.606 18.1168 25.7677 18.4089C26.3312 19.4242 27.3945 21.3389 27.4693 21.4726C27.4852 21.4957 27.5332 21.5646 27.5744 21.6231C27.6136 21.6787 27.6559 21.7319 27.6997 21.7847C28.6486 22.9349 28.763 24.4412 27.998 25.7161L27.998 25.7161ZM27.2957 22.1184C27.2435 22.0553 27.1924 21.9908 27.1458 21.9244C27.0041 21.7234 27.0005 21.7181 26.9898 21.6655C26.8242 21.3914 26.4201 20.664 25.3094 18.6629C25.212 18.4873 24.9906 18.4232 24.8143 18.5206C24.7276 18.5691 24.6579 18.6368 24.607 18.7216C24.504 18.8933 24.5001 19.1078 24.5974 19.282L25.5613 21.0188C25.6189 21.1225 25.5997 21.2517 25.5146 21.334C25.4296 21.4165 25.2997 21.431 25.1977 21.3703L20.5604 18.5883C20.3418 18.4573 20.0537 18.5086 19.9185 18.7037C19.8408 18.8159 19.816 18.9497 19.8485 19.0804C19.8784 19.1998 19.9533 19.3005 20.0594 19.3641C20.0597 19.3643 20.0599 19.3646 20.0602 19.3648L23.0923 21.1838C23.2163 21.2583 23.2564 21.419 23.182 21.5431C23.1075 21.6669 22.947 21.7074 22.8227 21.6328L19.1002 19.3997C18.9946 19.3364 18.8703 19.3177 18.7509 19.3478C18.6312 19.3776 18.5305 19.4524 18.467 19.5585C18.4034 19.6643 18.385 19.7884 18.4146 19.9078C18.4444 20.0272 18.5194 20.128 18.6253 20.1917L19.3497 20.6261L22.3476 22.4248C22.4716 22.4992 22.5118 22.6599 22.4373 22.7841C22.3628 22.9079 22.2023 22.9482 22.078 22.8738L19.0453 21.0543C18.8272 20.9231 18.5431 20.9943 18.4119 21.2127C18.3483 21.3186 18.33 21.4428 18.3595 21.5622C18.3893 21.6815 18.4643 21.7822 18.5704 21.846L19.3139 22.2921L21.6031 23.6655C21.727 23.74 21.7672 23.9007 21.6928 24.0248C21.6183 24.1487 21.4578 24.1893 21.3335 24.1145L19.0443 22.7411C18.9387 22.6778 18.8149 22.6591 18.6948 22.6891C18.5754 22.719 18.4744 22.7937 18.411 22.8995C18.3475 23.0055 18.329 23.1298 18.3585 23.249C18.3883 23.3684 18.4633 23.4691 18.5694 23.5329L23.2101 26.3168C23.9632 26.7686 24.8316 26.925 25.6546 26.7571C26.4689 26.5908 27.1417 26.1255 27.5487 25.4469C28.2064 24.3511 28.1118 23.1068 27.296 22.1184L27.2957 22.1184Z" fill="#103E13"/>
</svg>
