<svg width="24" height="27" viewBox="0 0 24 27" fill="none" xmlns="http://www.w3.org/2000/svg">
<path d="M23.0713 25.8318V23.0475C23.0713 21.5706 22.4847 20.1542 21.4403 19.1099C20.396 18.0656 18.9797 17.4789 17.5028 17.4789H16.1106C15.7414 17.4789 15.3873 17.3323 15.1263 17.0712C14.8652 16.8101 14.7185 16.456 14.7185 16.0868V9.12609C14.7185 8.38765 14.4252 7.67946 13.903 7.15731C13.3809 6.63515 12.6727 6.34181 11.9342 6.34181C11.1958 6.34181 10.4876 6.63515 9.96545 7.15731C9.4433 7.67946 9.14995 8.38765 9.14995 9.12609V21.6553L5.80882 17.2005C5.54947 16.8547 5.21318 16.574 4.82656 16.3807C4.43995 16.1874 4.01364 16.0868 3.5814 16.0868H2.97721C1.77301 16.0868 0.797119 17.0627 0.797119 18.2669C0.797119 18.6622 0.904314 19.0506 1.10757 19.3889L4.97354 25.8318M11.9342 2.16539V0.773254V2.16539ZM20.2871 10.5182H21.6792H20.2871ZM2.18926 10.5182H3.5814H2.18926ZM5.45104 4.03504L4.4668 3.05079L5.45104 4.03504ZM18.4174 4.03504L19.4017 3.05079L18.4174 4.03504Z" fill="#4CAF4F"/>
<path d="M23.0713 25.8318V23.0475C23.0713 21.5706 22.4847 20.1542 21.4403 19.1099C20.396 18.0656 18.9797 17.4789 17.5028 17.4789H16.1106C15.7414 17.4789 15.3873 17.3323 15.1263 17.0712C14.8652 16.8101 14.7185 16.456 14.7185 16.0868V9.12609C14.7185 8.38765 14.4252 7.67946 13.903 7.15731C13.3809 6.63515 12.6727 6.34181 11.9342 6.34181V6.34181C11.1958 6.34181 10.4876 6.63515 9.96545 7.15731C9.4433 7.67946 9.14995 8.38765 9.14995 9.12609V21.6553L5.80882 17.2005C5.54947 16.8547 5.21318 16.574 4.82656 16.3807C4.43995 16.1874 4.01364 16.0868 3.5814 16.0868H2.97721C1.77301 16.0868 0.797119 17.0627 0.797119 18.2669C0.797119 18.6622 0.904314 19.0506 1.10757 19.3889L4.97354 25.8318M11.9342 2.16539V0.773254M20.2871 10.5182H21.6792M2.18926 10.5182H3.5814M5.45104 4.03504L4.4668 3.05079M18.4174 4.03504L19.4017 3.05079" stroke="#4CAF4F" stroke-width="1.39214" stroke-linecap="round" stroke-linejoin="round"/>
</svg>
